<svg id="campaign03" xmlns="http://www.w3.org/2000/svg" width="110.226" height="48.222" viewBox="0 0 110.226 48.222">
  <path id="패스_27" data-name="패스 27" d="M62.057,66.8h-.1c-17.641-.847-22.781-12.37-22.991-12.868a1.993,1.993,0,0,1-.155-.762V26c0-4.611,2.682-5.831,4.1-5.831a1.934,1.934,0,0,1,1.158.381l9.509,7.067c8.895-4.027,18.178-1.275,21.529-.023l6.865-6.865a1.946,1.946,0,0,1,2.752,2.752l-7.775,7.775a1.948,1.948,0,0,1-2.193.389c-.109-.047-11.033-4.96-20.487-.039a1.955,1.955,0,0,1-2.06-.163l-9.322-6.928A4.874,4.874,0,0,0,42.7,26V52.719c.894,1.718,5.707,9.509,19.391,10.185.778-.008,13.171-.288,21.591-7.417-.156-3.856-.031-17.8,8.84-27.477,5.707-6.22,13.839-9.384,24.18-9.4,1.19-.078,13-.6,22.1,7.829,6.788,6.29,10.232,15.814,10.232,28.324a1.944,1.944,0,1,1-3.887,0c0-11.359-3.009-19.92-8.949-25.44-8.125-7.557-19.173-6.842-19.282-6.834h-.148c-9.237,0-16.436,2.737-21.389,8.14-9.027,9.843-7.791,25.354-7.775,25.51a1.951,1.951,0,0,1-.622,1.6c-9.734,8.918-24.2,9.042-24.934,9.042Z" transform="translate(-38.81 -18.577)" fill="#1d1d1d"/>
  <path id="패스_28" data-name="패스 28" d="M136.577,60.395c-3.483,0-7-1.205-7-3.887s3.514-3.887,7-3.887,7,1.205,7,3.887S140.061,60.395,136.577,60.395Zm3.351-3.2Zm-3.351-.684Z" transform="translate(-59.006 -26.152)" fill="#1d1d1d"/>
  <circle id="타원_6" data-name="타원 6" cx="4.471" cy="4.471" r="4.471" transform="translate(9.54 21.414)" fill="#1d1d1d"/>
  <circle id="타원_7" data-name="타원 7" cx="4.471" cy="4.471" r="4.471" transform="translate(30.532 21.414)" fill="#1d1d1d"/>
  <ellipse id="타원_8" data-name="타원 8" cx="5.054" cy="3.11" rx="5.054" ry="3.11" transform="translate(19.259 34.243)" fill="#1d1d1d"/>
  <circle id="타원_9" data-name="타원 9" cx="4.276" cy="4.276" r="4.276" transform="translate(63.576 16.361)" fill="#1d1d1d"/>
  <circle id="타원_10" data-name="타원 10" cx="4.276" cy="4.276" r="4.276" transform="translate(83.014 16.361)" fill="#1d1d1d"/>
  <path id="패스_29" data-name="패스 29" d="M141.218,73.157a9.6,9.6,0,0,1-6.749-2.48,10.646,10.646,0,0,1-2.294-3.133,11.333,11.333,0,0,1-5.785,4.758,1.245,1.245,0,0,1-.163.039c-5.652,1.182-9.851.3-12.479-2.628-5.2-5.777-1.586-17.268-1.431-17.758a1.945,1.945,0,0,1,3.7,1.2c-.871,2.729-2.457,10.551.622,13.972,1.625,1.8,4.541,2.286,8.685,1.438.529-.194,4.338-1.78,5.139-7.8a26.438,26.438,0,0,1,.047-4.937,1.944,1.944,0,0,1,3.864.047,24.49,24.49,0,0,1,0,5.015c.257,2.535,1,5.341,2.729,6.935,1.5,1.384,3.631,1.765,6.508,1.182a1.977,1.977,0,0,1,.568-.031,5.727,5.727,0,0,0,4.44-1.92c2.138-2.511,2.441-7.371.871-14.049a1.945,1.945,0,1,1,3.786-.894c1.9,8.1,1.314,13.995-1.757,17.525a9.666,9.666,0,0,1-7.371,3.219,15.952,15.952,0,0,1-2.939.3Z" transform="translate(-54.862 -25.704)" fill="#1d1d1d"/>
</svg>
