<svg id="campaign04" xmlns="http://www.w3.org/2000/svg" xmlns:xlink="http://www.w3.org/1999/xlink" width="80.175" height="100" viewBox="0 0 80.175 100">
  <defs>
    <clipPath id="clip-path">
      <rect id="사각형_55" data-name="사각형 55" width="80.175" height="100" fill="none"/>
    </clipPath>
    <clipPath id="clip-path-3">
      <rect id="사각형_53" data-name="사각형 53" width="57.588" height="83.304" fill="none"/>
    </clipPath>
  </defs>
  <g id="그룹_13" data-name="그룹 13" clip-path="url(#clip-path)">
    <g id="그룹_12" data-name="그룹 12">
      <g id="그룹_11" data-name="그룹 11" clip-path="url(#clip-path)">
        <path id="패스_78" data-name="패스 78" d="M40.852.048h0a1.412,1.412,0,0,1,1.729,1l2.156,8.045a1.412,1.412,0,1,1-2.728.731L39.853,1.778a1.412,1.412,0,0,1,1-1.729" transform="translate(-24.009 0)" fill="#d82e3d"/>
        <path id="패스_79" data-name="패스 79" d="M1.47,39.43h0a1.412,1.412,0,0,1,1.729-1l8.045,2.156a1.412,1.412,0,0,1-.731,2.728L2.469,41.159a1.412,1.412,0,0,1-1-1.729" transform="translate(-0.858 -23.152)" fill="#d82e3d"/>
        <path id="패스_80" data-name="패스 80" d="M21.382,19.93l-.03.031a1.392,1.392,0,0,1-1.967,0l-5.919-5.919a1.391,1.391,0,0,1,0-1.967l.03-.03a1.392,1.392,0,0,1,1.967,0l5.919,5.92a1.39,1.39,0,0,1,0,1.966" transform="translate(-7.876 -7.019)" fill="#d82e3d"/>
        <path id="패스_81" data-name="패스 81" d="M153.622.048h0a1.412,1.412,0,0,0-1.729,1l-2.156,8.045a1.412,1.412,0,1,0,2.728.731l2.156-8.045a1.412,1.412,0,0,0-1-1.729" transform="translate(-90.288 0)" fill="#d82e3d"/>
        <path id="패스_82" data-name="패스 82" d="M184.051,39.43h0a1.412,1.412,0,0,0-1.729-1l-8.045,2.156a1.412,1.412,0,0,0,.731,2.728l8.045-2.156a1.412,1.412,0,0,0,1-1.729" transform="translate(-104.488 -23.152)" fill="#d82e3d"/>
        <path id="패스_83" data-name="패스 83" d="M167.391,19.93l.03.031a1.392,1.392,0,0,0,1.967,0l5.919-5.919a1.391,1.391,0,0,0,0-1.967l-.03-.03a1.392,1.392,0,0,0-1.967,0l-5.919,5.92a1.39,1.39,0,0,0,0,1.966" transform="translate(-100.72 -7.019)" fill="#d82e3d"/>
        <path id="패스_84" data-name="패스 84" d="M77.423,219.775H2.757a2.755,2.755,0,0,1-2.6-3.667l5.548-15.7a2.76,2.76,0,0,1,2.6-1.837h63.57a2.753,2.753,0,0,1,2.592,1.837l5.548,15.7a2.749,2.749,0,0,1-2.592,3.667" transform="translate(0 -119.775)" fill="#454545"/>
        <path id="패스_85" data-name="패스 85" d="M86.88,104.177H32.5L37.5,50.289a9.058,9.058,0,0,1,9.021-8.216H72.87a9.056,9.056,0,0,1,9.015,8.216Z" transform="translate(-19.604 -25.377)" fill="#c32430"/>
        <path id="패스_86" data-name="패스 86" d="M95.1,105.556H93.717a1.552,1.552,0,0,1-1.542-1.382l-2.1-19.14a1.551,1.551,0,0,1,1.542-1.721h5.595a1.552,1.552,0,0,1,1.542,1.721l-2.1,19.14a1.552,1.552,0,0,1-1.542,1.382" transform="translate(-54.323 -50.252)" fill="#f6f6f6"/>
        <path id="패스_87" data-name="패스 87" d="M100.049,149.77a1.87,1.87,0,1,1-1.871-1.871,1.871,1.871,0,0,1,1.871,1.871" transform="translate(-58.091 -89.209)" fill="#f6f6f6"/>
        <g id="그룹_10" data-name="그룹 10" transform="translate(0 16.696)" opacity="0.05">
          <g id="그룹_9" data-name="그룹 9">
            <g id="그룹_8" data-name="그룹 8" clip-path="url(#clip-path-3)">
              <path id="패스_88" data-name="패스 88" d="M57.588,74.472a64.535,64.535,0,0,1-7.09,29.706,53.91,53.91,0,0,1-19.231,21.2H2.756a2.755,2.755,0,0,1-2.6-3.667l5.549-15.7a2.76,2.76,0,0,1,2.6-1.837H12.9L17.892,50.29a9.058,9.058,0,0,1,9.021-8.216h22.1a64.09,64.09,0,0,1,8.575,32.4" transform="translate(0 -42.074)" fill="#fff"/>
            </g>
          </g>
        </g>
      </g>
    </g>
  </g>
</svg>
