<svg xmlns="http://www.w3.org/2000/svg" width="289.866" height="49.62" viewBox="0 0 289.866 49.62">
  <g id="그룹_100" data-name="그룹 100" transform="translate(-30.175 -13.046)">
    <g id="그룹_5" data-name="그룹 5" transform="translate(30.175 14.444)">
      <path id="패스_27" data-name="패스 27" d="M62.057,66.8h-.1c-17.641-.847-22.781-12.37-22.991-12.868a1.993,1.993,0,0,1-.155-.762V26c0-4.611,2.682-5.831,4.1-5.831a1.934,1.934,0,0,1,1.158.381l9.509,7.067c8.895-4.027,18.178-1.275,21.529-.023l6.865-6.865a1.946,1.946,0,0,1,2.752,2.752l-7.775,7.775a1.948,1.948,0,0,1-2.193.389c-.109-.047-11.033-4.96-20.487-.039a1.955,1.955,0,0,1-2.06-.163l-9.322-6.928A4.874,4.874,0,0,0,42.7,26V52.719c.894,1.718,5.707,9.509,19.391,10.185.778-.008,13.171-.288,21.591-7.417-.156-3.856-.031-17.8,8.84-27.477,5.707-6.22,13.839-9.384,24.18-9.4,1.19-.078,13-.6,22.1,7.829,6.788,6.29,10.232,15.814,10.232,28.324a1.944,1.944,0,1,1-3.887,0c0-11.359-3.009-19.92-8.949-25.44-8.125-7.557-19.173-6.842-19.282-6.834h-.148c-9.237,0-16.436,2.737-21.389,8.14-9.027,9.843-7.791,25.354-7.775,25.51a1.951,1.951,0,0,1-.622,1.6c-9.734,8.918-24.2,9.042-24.934,9.042Z" transform="translate(-38.81 -18.577)" fill="#fff"/>
      <path id="패스_28" data-name="패스 28" d="M136.577,60.395c-3.483,0-7-1.205-7-3.887s3.514-3.887,7-3.887,7,1.205,7,3.887S140.061,60.395,136.577,60.395Zm3.351-3.2Zm-3.351-.684Z" transform="translate(-59.006 -26.152)" fill="#fff"/>
      <circle id="타원_6" data-name="타원 6" cx="4.471" cy="4.471" r="4.471" transform="translate(9.54 21.414)" fill="#fff"/>
      <circle id="타원_7" data-name="타원 7" cx="4.471" cy="4.471" r="4.471" transform="translate(30.532 21.414)" fill="#fff"/>
      <ellipse id="타원_8" data-name="타원 8" cx="5.054" cy="3.11" rx="5.054" ry="3.11" transform="translate(19.259 34.243)" fill="#fff"/>
      <circle id="타원_9" data-name="타원 9" cx="4.276" cy="4.276" r="4.276" transform="translate(63.576 16.361)" fill="#fff"/>
      <circle id="타원_10" data-name="타원 10" cx="4.276" cy="4.276" r="4.276" transform="translate(83.014 16.361)" fill="#fff"/>
      <path id="패스_29" data-name="패스 29" d="M141.218,73.157a9.6,9.6,0,0,1-6.749-2.48,10.646,10.646,0,0,1-2.294-3.133,11.333,11.333,0,0,1-5.785,4.758,1.245,1.245,0,0,1-.163.039c-5.652,1.182-9.851.3-12.479-2.628-5.2-5.777-1.586-17.268-1.431-17.758a1.945,1.945,0,0,1,3.7,1.2c-.871,2.729-2.457,10.551.622,13.972,1.625,1.8,4.541,2.286,8.685,1.438.529-.194,4.338-1.78,5.139-7.8a26.438,26.438,0,0,1,.047-4.937,1.944,1.944,0,0,1,3.864.047,24.49,24.49,0,0,1,0,5.015c.257,2.535,1,5.341,2.729,6.935,1.5,1.384,3.631,1.765,6.508,1.182a1.977,1.977,0,0,1,.568-.031,5.727,5.727,0,0,0,4.44-1.92c2.138-2.511,2.441-7.371.871-14.049a1.945,1.945,0,1,1,3.786-.894c1.9,8.1,1.314,13.995-1.757,17.525a9.666,9.666,0,0,1-7.371,3.219,15.952,15.952,0,0,1-2.939.3Z" transform="translate(-54.862 -25.704)" fill="#fff"/>
    </g>
    <g id="그룹_6" data-name="그룹 6" transform="translate(162.637 13.046)">
      <path id="패스_30" data-name="패스 30" d="M210.681,29.3h9.151V27.428a22.626,22.626,0,0,1-5.287-.7,2.436,2.436,0,0,1-1.928-2.713v-4.09a1.856,1.856,0,0,1,2.1-1.765h14.275a1.464,1.464,0,0,1,1.571,1.594,1.409,1.409,0,0,1-1.571,1.539H216.31v2.294a.273.273,0,0,0,.225.311,22.43,22.43,0,0,0,5.178.451,29.783,29.783,0,0,0,7.246-.84,3.482,3.482,0,0,1,.56-.086,1.572,1.572,0,0,1,1.679,1.539,1.69,1.69,0,0,1-1.345,1.571,30.447,30.447,0,0,1-6.267.894V29.3h9.151a1.6,1.6,0,0,1,0,3.188h-22.05a1.6,1.6,0,0,1,0-3.188ZM221.713,45c-4.618,0-7.868-2.239-7.868-5.458S217.095,34,221.713,34s7.861,2.27,7.861,5.544S226.332,45,221.713,45Zm.023-3.133c2.465,0,4.082-.894,4.082-2.325s-1.648-2.41-4.082-2.41-4.144.949-4.144,2.41S219.217,41.866,221.737,41.866Z" transform="translate(-209.18 -17.087)" fill="#fff"/>
      <path id="패스_31" data-name="패스 31" d="M245.236,28.4h22.05a1.6,1.6,0,0,1,0,3.188h-9.151v1.648h4.953c1.205,0,2.1.669,2.1,1.765v3.608a1.719,1.719,0,0,1-1.928,1.679H250.8v1.4h13.715a1.54,1.54,0,1,1,0,3.079H249.155c-1.205,0-2.1-.669-2.1-1.765V39.36a1.856,1.856,0,0,1,2.1-1.765h12.284V36.3h-13.1a1.54,1.54,0,1,1,0-3.079h6.041V31.577h-9.151a1.6,1.6,0,0,1,0-3.188Zm4-10.527H263.29c1.205,0,2.1.669,2.1,1.765v4.09c0,1.314-.334,1.959-1.345,2.379a26.674,26.674,0,0,1-7.783.871,27.3,27.3,0,0,1-7.721-.84c-1.065-.451-1.4-1.088-1.4-2.41v-4.09A1.856,1.856,0,0,1,249.24,17.87Zm1.594,5.38a.276.276,0,0,0,.225.28,33.652,33.652,0,0,0,5.209.365,33.743,33.743,0,0,0,5.209-.365.276.276,0,0,0,.225-.28V20.957H250.842V23.25Z" transform="translate(-216.865 -17.023)" fill="#fff"/>
      <path id="패스_32" data-name="패스 32" d="M279.635,40.581a1.631,1.631,0,0,1-1.345-1.594,1.6,1.6,0,0,1,1.594-1.625,1.81,1.81,0,0,1,.505.086,39.806,39.806,0,0,0,8.56,1.205v-5.4a18.964,18.964,0,0,1-5.847-.925,2.192,2.192,0,0,1-1.4-2.41v-9.4a1.871,1.871,0,0,1,3.7,0v2.659h10.862V20.514a1.871,1.871,0,0,1,3.7,0v9.4a2.162,2.162,0,0,1-1.345,2.379,18.682,18.682,0,0,1-5.9.949v5.4a39.259,39.259,0,0,0,8.56-1.205,1.7,1.7,0,0,1,.505-.054,1.575,1.575,0,0,1,1.594,1.594,1.623,1.623,0,0,1-1.345,1.594,42.261,42.261,0,0,1-11.2,1.345,42.3,42.3,0,0,1-11.2-1.345Zm5.987-10.971a24.5,24.5,0,0,0,5.209.505,24.568,24.568,0,0,0,5.209-.505.276.276,0,0,0,.225-.28V26.283H285.4v3.11c0,.14.086.194.225.225Z" transform="translate(-224.557 -17.256)" fill="#fff"/>
      <path id="패스_33" data-name="패스 33" d="M327.263,35.539v3.079a39.259,39.259,0,0,0,8.56-1.205,1.7,1.7,0,0,1,.505-.054,1.575,1.575,0,0,1,1.594,1.594,1.623,1.623,0,0,1-1.345,1.594,42.261,42.261,0,0,1-11.2,1.345,42.3,42.3,0,0,1-11.2-1.345,1.631,1.631,0,0,1-1.345-1.594,1.6,1.6,0,0,1,1.594-1.625,1.809,1.809,0,0,1,.505.086,39.806,39.806,0,0,0,8.56,1.205V35.539c-3.833-.505-6.3-2.6-6.3-5.458,0-3.3,3.273-5.567,8.172-5.567s8.172,2.27,8.172,5.567c0,2.853-2.465,4.953-6.3,5.458ZM316.4,19.834a1.483,1.483,0,0,1,.365.031,44.76,44.76,0,0,0,6.741.591V18.97a1.882,1.882,0,0,1,3.747,0v1.485A43.68,43.68,0,0,0,334,19.865a1.422,1.422,0,0,1,.365-.031,1.578,1.578,0,0,1,1.648,1.625,1.707,1.707,0,0,1-1.485,1.571,53.174,53.174,0,0,1-9.151.645,53.174,53.174,0,0,1-9.151-.645,1.693,1.693,0,0,1-1.485-1.571,1.578,1.578,0,0,1,1.648-1.625Zm8.988,12.681c2.713,0,4.424-.925,4.424-2.434s-1.711-2.488-4.424-2.488-4.424.925-4.424,2.488S322.675,32.515,325.389,32.515Z" transform="translate(-232.245 -16.887)" fill="#fff"/>
      <path id="패스_34" data-name="패스 34" d="M348.774,28.8a10.78,10.78,0,0,0,3.11-4.587,10.443,10.443,0,0,0,.56-3.639v-.754a1.823,1.823,0,0,1,3.639,0v.754a10.442,10.442,0,0,0,.56,3.639,10.665,10.665,0,0,0,3.11,4.587,2.049,2.049,0,0,1,.894,1.571,1.653,1.653,0,0,1-1.71,1.539,2.217,2.217,0,0,1-1.368-.505,12.812,12.812,0,0,1-3.3-4.673,12.721,12.721,0,0,1-3.3,4.673,2.249,2.249,0,0,1-1.368.505,1.653,1.653,0,0,1-1.711-1.539,2.061,2.061,0,0,1,.894-1.571Zm5.847,4.976a1.773,1.773,0,0,1,1.874,1.71V40.41a.4.4,0,0,0,.42.42h13.3a1.626,1.626,0,0,1,0,3.25H355.15a2.3,2.3,0,0,1-2.41-2.27V35.489a1.773,1.773,0,0,1,1.874-1.71Zm5.318-11.81h1.99V18.8a1.766,1.766,0,0,1,1.85-1.71,1.741,1.741,0,0,1,1.85,1.71V33.918a1.736,1.736,0,0,1-1.85,1.71,1.771,1.771,0,0,1-1.85-1.71v-8.7h-1.99a1.484,1.484,0,0,1-1.571-1.625A1.484,1.484,0,0,1,359.939,21.968Zm9.625-5.178a1.741,1.741,0,0,1,1.85,1.71V34.82a1.736,1.736,0,0,1-1.85,1.71,1.771,1.771,0,0,1-1.85-1.71V18.5a1.766,1.766,0,0,1,1.85-1.71Z" transform="translate(-240.041 -16.782)" fill="#fff"/>
      <path id="패스_35" data-name="패스 35" d="M386.121,18.529h9.851a1.517,1.517,0,0,1,1.679,1.594,1.539,1.539,0,0,1-1.679,1.625h-8.2v4.059h7.277a1.574,1.574,0,1,1,0,3.141H387.77V33.6a.289.289,0,0,0,.249.311,18.429,18.429,0,0,0,3.164.28,19.106,19.106,0,0,0,5.4-.731,2.588,2.588,0,0,1,.614-.086,1.535,1.535,0,0,1,1.625,1.594c0,.731-.389,1.26-1.314,1.571a21.3,21.3,0,0,1-6.321.84,18.858,18.858,0,0,1-5.147-.645,2.471,2.471,0,0,1-2.014-2.69V20.3a1.856,1.856,0,0,1,2.1-1.765Zm17.494-1.742a1.773,1.773,0,0,1,1.874,1.71V42.927a1.882,1.882,0,0,1-3.748,0V28.932h-2.69c-1.011,0-1.431-.669-1.431-1.625s.42-1.625,1.431-1.625h2.69V18.49a1.773,1.773,0,0,1,1.874-1.71Z" transform="translate(-248.084 -16.78)" fill="#fff"/>
    </g>
    <g id="그룹_7" data-name="그룹 7" transform="translate(176.927 51.268)">
      <path id="패스_36" data-name="패스 36" d="M228.633,66.1H231.1c2.154,0,3.444,1.322,3.444,3.071s-1.291,3.009-3.444,3.009h-1.882V75.1a.726.726,0,0,1-.824.785.743.743,0,0,1-.832-.785v-8a.993.993,0,0,1,1.073-1.011Zm.583,4.626h1.866c1.1,0,1.765-.536,1.765-1.578,0-1.1-.645-1.594-1.765-1.594h-1.866Z" transform="translate(-227.56 -65.973)" fill="#fff"/>
      <path id="패스_37" data-name="패스 37" d="M241.949,76.72a3.183,3.183,0,0,1-3.359-3.444c0-2.115,1.205-3.475,3.227-3.475a3.039,3.039,0,0,1,3.2,3.421c-.023.5-.389.708-.847.708h-3.833a1.522,1.522,0,0,0,1.656,1.392,2.363,2.363,0,0,0,1.485-.451.709.709,0,1,1,.933,1.065,3.747,3.747,0,0,1-2.449.77Zm-.124-5.5c-.832,0-1.306.451-1.493,1.415h2.947A1.429,1.429,0,0,0,241.824,71.215Z" transform="translate(-230.014 -66.799)" fill="#fff"/>
      <path id="패스_38" data-name="패스 38" d="M252.733,75.971c-1.329,0-2.418-.684-2.418-2.675v-2.76h-.832a.684.684,0,0,1-.723-.708.7.7,0,0,1,.723-.723h.832v-1.99a.829.829,0,0,1,1.656,0v1.99H253.7a.7.7,0,0,1,.723.723.689.689,0,0,1-.723.708h-1.734v2.885c0,.809.288,1.135.762,1.135a1.425,1.425,0,0,0,1.019-.474.7.7,0,0,1,1.073.039.741.741,0,0,1-.1,1.042,2.627,2.627,0,0,1-1.99.809Z" transform="translate(-232.277 -66.027)" fill="#fff"/>
      <path id="패스_39" data-name="패스 39" d="M263.863,66.1h2.465c2.154,0,3.444,1.322,3.444,3.071s-1.291,3.009-3.444,3.009h-1.882V75.1a.726.726,0,0,1-.824.785.743.743,0,0,1-.832-.785v-8a.993.993,0,0,1,1.073-1.011Zm.583,4.626h1.866c1.1,0,1.765-.536,1.765-1.578,0-1.1-.645-1.594-1.765-1.594h-1.866Z" transform="translate(-235.399 -65.973)" fill="#fff"/>
      <path id="패스_40" data-name="패스 40" d="M275.644,70.593a2.073,2.073,0,0,1,1.7-.793,2.023,2.023,0,0,1,1.182.311.7.7,0,0,1,.21.972.749.749,0,0,1-.972.249,1.952,1.952,0,0,0-.661-.109c-.77,0-1.415.606-1.47,1.78v2.939a.829.829,0,0,1-1.656,0v-5.3c0-.575.358-.785.832-.785a.74.74,0,0,1,.824.746Z" transform="translate(-237.889 -66.799)" fill="#fff"/>
      <path id="패스_41" data-name="패스 41" d="M282.22,73.24a3.5,3.5,0,1,1,3.507,3.475A3.444,3.444,0,0,1,282.22,73.24Zm3.507,2.068a2.065,2.065,0,1,0-1.843-2.053A1.844,1.844,0,0,0,285.727,75.308Z" transform="translate(-239.722 -66.794)" fill="#fff"/>
      <path id="패스_42" data-name="패스 42" d="M297.223,75.971c-1.33,0-2.418-.684-2.418-2.675v-2.76h-.832a.684.684,0,0,1-.723-.708.7.7,0,0,1,.723-.723h.832v-1.99a.829.829,0,0,1,1.656,0v1.99h1.726a.7.7,0,0,1,.723.723.689.689,0,0,1-.723.708h-1.726v2.885c0,.809.288,1.135.762,1.135a1.425,1.425,0,0,0,1.019-.474.7.7,0,0,1,1.073.039.741.741,0,0,1-.1,1.042,2.627,2.627,0,0,1-1.99.809Z" transform="translate(-242.176 -66.027)" fill="#fff"/>
      <path id="패스_43" data-name="패스 43" d="M306.639,76.72a3.183,3.183,0,0,1-3.359-3.444c0-2.115,1.205-3.475,3.227-3.475a3.039,3.039,0,0,1,3.2,3.421c-.023.5-.389.708-.847.708h-3.833a1.522,1.522,0,0,0,1.656,1.392,2.363,2.363,0,0,0,1.485-.451.709.709,0,1,1,.933,1.065,3.747,3.747,0,0,1-2.449.77Zm-.124-5.5c-.832,0-1.306.451-1.493,1.415h2.947A1.429,1.429,0,0,0,306.514,71.215Z" transform="translate(-244.408 -66.799)" fill="#fff"/>
      <path id="패스_44" data-name="패스 44" d="M317.214,76.72a3.46,3.46,0,0,1,0-6.92,3.245,3.245,0,0,1,2.107.661.7.7,0,0,1,.078.98.823.823,0,0,1-1.042.109,2.12,2.12,0,0,0-1.12-.334c-1.057,0-1.788.661-1.788,2.029s.746,2.076,1.788,2.076a1.939,1.939,0,0,0,1.228-.4.838.838,0,0,1,1.135.039.663.663,0,0,1-.086,1.019,3.546,3.546,0,0,1-2.286.731Z" transform="translate(-246.742 -66.799)" fill="#fff"/>
      <path id="패스_45" data-name="패스 45" d="M327.053,75.971c-1.33,0-2.418-.684-2.418-2.675v-2.76H323.8a.684.684,0,0,1-.723-.708.7.7,0,0,1,.723-.723h.832v-1.99a.829.829,0,0,1,1.656,0v1.99h1.734a.7.7,0,0,1,.723.723.689.689,0,0,1-.723.708h-1.734v2.885c0,.809.288,1.135.762,1.135a1.425,1.425,0,0,0,1.019-.474.7.7,0,0,1,1.073.039.741.741,0,0,1-.1,1.042,2.627,2.627,0,0,1-1.99.809Z" transform="translate(-248.813 -66.027)" fill="#fff"/>
      <path id="패스_46" data-name="패스 46" d="M341.255,75.869c-2.449,0-4.315-1.827-4.315-4.89s1.85-5.038,4.268-5.038a3.629,3.629,0,0,1,2.675.894.712.712,0,0,1,.086.956.741.741,0,0,1-1.1.086,2.7,2.7,0,0,0-1.656-.521c-1.446,0-2.6,1.26-2.6,3.6s1.158,3.5,2.651,3.5a2.527,2.527,0,0,0,1.843-.731.809.809,0,0,1,1.135-.039.782.782,0,0,1-.047,1.135,4.133,4.133,0,0,1-2.923,1.057Z" transform="translate(-251.897 -65.94)" fill="#fff"/>
      <path id="패스_47" data-name="패스 47" d="M351.929,76.72a3.183,3.183,0,0,1-3.359-3.444c0-2.115,1.205-3.475,3.227-3.475a3.039,3.039,0,0,1,3.2,3.421c-.023.5-.389.708-.847.708h-3.833a1.522,1.522,0,0,0,1.656,1.392,2.324,2.324,0,0,0,1.477-.451.709.709,0,1,1,.933,1.065,3.747,3.747,0,0,1-2.449.77Zm-.124-5.5c-.832,0-1.306.451-1.493,1.415h2.947A1.429,1.429,0,0,0,351.8,71.215Z" transform="translate(-254.485 -66.799)" fill="#fff"/>
      <path id="패스_48" data-name="패스 48" d="M360.922,70.73a2.24,2.24,0,0,1,1.827-.77c1.928,0,2.877,1.384,2.8,3.5v2.636a.74.74,0,0,1-.832.785.754.754,0,0,1-.832-.785V73.381c.039-1.392-.4-2.006-1.384-2.006s-1.532.606-1.578,1.78v2.939a.737.737,0,0,1-.824.785.751.751,0,0,1-.847-.785v-5.3a.751.751,0,0,1,.847-.785A.743.743,0,0,1,360.922,70.73Z" transform="translate(-256.861 -66.834)" fill="#fff"/>
      <path id="패스_49" data-name="패스 49" d="M373.463,75.971c-1.33,0-2.418-.684-2.418-2.675v-2.76h-.832a.684.684,0,0,1-.723-.708.7.7,0,0,1,.723-.723h.832v-1.99a.829.829,0,0,1,1.656,0v1.99h1.734a.7.7,0,0,1,.723.723.689.689,0,0,1-.723.708H372.7v2.885c0,.809.288,1.135.762,1.135a1.425,1.425,0,0,0,1.019-.474.7.7,0,0,1,1.073.039.741.741,0,0,1-.1,1.042,2.627,2.627,0,0,1-1.99.809Z" transform="translate(-259.14 -66.027)" fill="#fff"/>
      <path id="패스_50" data-name="패스 50" d="M382.869,76.72a3.183,3.183,0,0,1-3.359-3.444c0-2.115,1.205-3.475,3.227-3.475a3.039,3.039,0,0,1,3.2,3.421c-.023.5-.389.708-.847.708h-3.833a1.522,1.522,0,0,0,1.656,1.392,2.363,2.363,0,0,0,1.485-.451.709.709,0,1,1,.933,1.065,3.747,3.747,0,0,1-2.449.77Zm-.124-5.5c-.832,0-1.306.451-1.493,1.415H384.2A1.429,1.429,0,0,0,382.744,71.215Z" transform="translate(-261.369 -66.799)" fill="#fff"/>
      <path id="패스_51" data-name="패스 51" d="M391.854,70.593a2.073,2.073,0,0,1,1.7-.793,2.023,2.023,0,0,1,1.182.311.7.7,0,0,1,.21.972.749.749,0,0,1-.972.249,1.952,1.952,0,0,0-.661-.109c-.77,0-1.415.606-1.469,1.78v2.939a.829.829,0,0,1-1.656,0v-5.3c0-.575.358-.785.832-.785a.74.74,0,0,1,.824.746Z" transform="translate(-263.745 -66.799)" fill="#fff"/>
    </g>
  </g>
</svg>
