<svg xmlns="http://www.w3.org/2000/svg" width="170.282" height="176.532" viewBox="0 0 170.282 176.532">
  <g id="slogan" transform="translate(-3.14 -1.517)" style="isolation: isolate">
    <path id="패스_54" data-name="패스 54" d="M51.124,38.884l5.62-4.039-.829-1.152a16.834,16.834,0,0,1-3.557,1.9,1.852,1.852,0,0,1-2.387-.817l-1.8-2.51a1.4,1.4,0,0,1,.506-2.011l8.759-6.3a1.11,1.11,0,0,1,1.67.288,1.076,1.076,0,0,1-.282,1.64l-7.783,5.6,1.017,1.411a.2.2,0,0,0,.276.088A16.73,16.73,0,0,0,55.7,30.972a22.344,22.344,0,0,0,4.08-3.715,3.679,3.679,0,0,1,.306-.3,1.185,1.185,0,0,1,1.711.206,1.274,1.274,0,0,1-.129,1.558,22.831,22.831,0,0,1-3.451,3.316l.829,1.152,5.62-4.039a1.208,1.208,0,0,1,1.411,1.958L52.541,40.842a1.138,1.138,0,0,1-1.634-.312,1.126,1.126,0,0,1,.223-1.646Zm13.709,4.791c-2.834,2.04-5.82,2.093-7.243.112-1.446-2.016-.459-4.844,2.375-6.878s5.832-2.075,7.278-.065c1.423,1.981.423,4.791-2.416,6.825ZM63.469,41.73c1.511-1.088,2.11-2.351,1.481-3.233s-2.081-.752-3.574.323c-1.528,1.1-2.122,2.41-1.476,3.31.629.876,2.022.711,3.568-.4Z" transform="translate(-18.455 -9.142)" fill="#fff"/>
    <path id="패스_55" data-name="패스 55" d="M82.63,10.811l9.947-3.727a1.407,1.407,0,0,1,1.958.694l1.088,2.9a1.619,1.619,0,0,1-.317,2.046A20.26,20.26,0,0,1,90.026,15.4a20.42,20.42,0,0,1-5.691,1.452c-.87-.035-1.282-.406-1.628-1.334l-1.088-2.9a1.407,1.407,0,0,1,1.017-1.811Zm-.035,8.53,15.614-5.855a1.124,1.124,0,0,1,1.493.729,1.144,1.144,0,0,1-.647,1.534l-6.478,2.428.441,1.17,3.51-1.317a1.4,1.4,0,0,1,1.952.694l.958,2.563a1.3,1.3,0,0,1-.923,1.7L89.7,26.3l.37.993,9.712-3.639a1.135,1.135,0,0,1,1.54.67,1.149,1.149,0,0,1-.723,1.517L89.72,29.917a1.407,1.407,0,0,1-1.958-.694L86.8,26.642a1.407,1.407,0,0,1,1.017-1.811l8.7-3.263-.341-.911L86.9,24.132a1.147,1.147,0,0,1-1.54-.67,1.133,1.133,0,0,1,.723-1.517l4.28-1.6-.441-1.17L83.447,21.6a1.21,1.21,0,0,1-.847-2.263ZM85.188,14.2a.205.205,0,0,0,.235.141,24.89,24.89,0,0,0,3.78-1.123,25.312,25.312,0,0,0,3.586-1.64.2.2,0,0,0,.082-.259L92.26,9.688,84.57,12.569l.611,1.628Z" transform="translate(-32.308 -2.238)" fill="#fff"/>
    <path id="패스_56" data-name="패스 56" d="M118.7,19.155a1.233,1.233,0,0,1-1.123-1.111,1.208,1.208,0,0,1,1.088-1.334,1.3,1.3,0,0,1,.388.029,30.087,30.087,0,0,0,6.531.312l-.376-4.074a14.483,14.483,0,0,1-4.468-.288,1.663,1.663,0,0,1-1.223-1.717l-.658-7.1a1.411,1.411,0,0,1,2.781-.259l.188,2L130,4.864l-.188-2A1.414,1.414,0,0,1,132.6,2.6l.658,7.1a1.632,1.632,0,0,1-.847,1.887,14.116,14.116,0,0,1-4.38,1.129l.376,4.074a30.287,30.287,0,0,0,6.367-1.5,1.338,1.338,0,0,1,.376-.076,1.19,1.19,0,0,1,1.311,1.093,1.235,1.235,0,0,1-.9,1.3,31.946,31.946,0,0,1-8.336,1.793,32.012,32.012,0,0,1-8.524-.229Zm3.739-8.695a18.728,18.728,0,0,0,3.956.018,18.2,18.2,0,0,0,3.886-.747.2.2,0,0,0,.147-.229l-.212-2.3-8.177.758.218,2.346c.012.106.076.141.182.153Z" transform="translate(-47.16 0)" fill="#fff"/>
    <path id="패스_57" data-name="패스 57" d="M161.979,16.165l-.394,2.3a29.655,29.655,0,0,0,6.537.194,1.144,1.144,0,0,1,.382.024,1.188,1.188,0,0,1,.982,1.393,1.232,1.232,0,0,1-1.205,1.017,31.97,31.97,0,0,1-8.512-.429,31.865,31.865,0,0,1-8.171-2.434,1.243,1.243,0,0,1-.8-1.364,1.214,1.214,0,0,1,1.4-1.011,1.239,1.239,0,0,1,.364.129,29.8,29.8,0,0,0,6.226,1.993l.394-2.3c-2.792-.864-4.362-2.751-3.992-4.879.423-2.469,3.157-3.739,6.8-3.116,3.627.623,5.8,2.739,5.373,5.2-.364,2.134-2.469,3.386-5.391,3.269ZM155.9,3.049a1.131,1.131,0,0,1,.27.065,32.784,32.784,0,0,0,4.95,1.3l.188-1.105a1.333,1.333,0,0,1,1.617-1.035A1.361,1.361,0,0,1,164.1,3.79L163.913,4.9a33.235,33.235,0,0,0,5.1.423,1.422,1.422,0,0,1,.276.024,1.2,1.2,0,0,1,1.023,1.423,1.289,1.289,0,0,1-1.305.982,40.584,40.584,0,0,1-6.9-.688,40.072,40.072,0,0,1-6.737-1.652,1.279,1.279,0,0,1-.905-1.358,1.2,1.2,0,0,1,1.44-1Zm5.073,10.617c2.022.347,3.416-.123,3.61-1.252.2-1.17-.952-2.081-2.975-2.428s-3.416.123-3.615,1.293c-.194,1.129.958,2.034,2.98,2.387Z" transform="translate(-60.847 -0.302)" fill="#fff"/>
    <path id="패스_58" data-name="패스 58" d="M191.873,23.113a1.347,1.347,0,0,1,.741,1.769l-1.575,3.386a.3.3,0,0,0,.153.423l9.112,4.25a1.23,1.23,0,0,1-1.041,2.228l-10.323-4.809a1.736,1.736,0,0,1-.923-2.328l2.028-4.344a1.346,1.346,0,0,1,1.834-.576Zm-2.416-5.291a8.13,8.13,0,0,0,3.6-2.157,7.831,7.831,0,0,0,1.546-2.322l.241-.517a1.377,1.377,0,0,1,2.493,1.158l-.241.517a7.911,7.911,0,0,0-.782,2.681,8.1,8.1,0,0,0,.658,4.144,1.547,1.547,0,0,1,.112,1.364,1.251,1.251,0,0,1-1.664.511,1.686,1.686,0,0,1-.776-.782,9.606,9.606,0,0,1-.77-4.268,9.705,9.705,0,0,1-3.762,2.157,1.67,1.67,0,0,1-1.1-.094,1.253,1.253,0,0,1-.676-1.6,1.551,1.551,0,0,1,1.117-.788ZM199.3,16.7l1.364.635,1.011-2.175a1.333,1.333,0,0,1,1.811-.582,1.308,1.308,0,0,1,.717,1.764l-4.838,10.382a1.31,1.31,0,0,1-1.811.582,1.333,1.333,0,0,1-.717-1.764l2.786-5.979-1.364-.635a1.126,1.126,0,0,1-.553-1.617A1.123,1.123,0,0,1,199.3,16.7Zm8.26-.482a1.308,1.308,0,0,1,.717,1.764l-5.226,11.2a1.31,1.31,0,0,1-1.811.582A1.333,1.333,0,0,1,200.52,28l5.226-11.2A1.333,1.333,0,0,1,207.557,16.218Z" transform="translate(-76.126 -4.358)" fill="#fff"/>
    <path id="패스_59" data-name="패스 59" d="M227.739,29.824l5.7,4.8a1.219,1.219,0,1,1-1.57,1.864l-4.744-4-1.981,2.351,4.209,3.545a1.19,1.19,0,1,1-1.528,1.817l-4.209-3.545-2.269,2.692a.212.212,0,0,0,0,.3,14.668,14.668,0,0,0,5.173,3.915,1.818,1.818,0,0,1,.394.253,1.164,1.164,0,0,1,.159,1.717,1.206,1.206,0,0,1-1.528.265,16.062,16.062,0,0,1-4.068-2.593,14.193,14.193,0,0,1-2.663-2.881,1.869,1.869,0,0,1,.147-2.54l6.708-7.966a1.4,1.4,0,0,1,2.075,0ZM238.7,37.337a1.344,1.344,0,0,1,.253,1.9L227.028,53.4a1.424,1.424,0,0,1-2.169-1.828l6.831-8.107-1.552-1.311a1.239,1.239,0,0,1,1.581-1.881l1.552,1.311,3.51-4.168a1.338,1.338,0,0,1,1.916-.076Z" transform="translate(-88.707 -11.475)" fill="#fff"/>
    <path id="패스_60" data-name="패스 60" d="M281.4,183.518l-1.105,4.045c-.964,3.533-3.715,5.062-6.6,4.274-2.922-.8-4.368-3.48-3.4-7.007l.847-3.08-4.809-1.317a1.228,1.228,0,0,1-.917-1.7,1.267,1.267,0,0,1,1.664-1.017l13.151,3.6a1.687,1.687,0,0,1,1.176,2.21Zm-7.866-1.123-.841,3.063c-.5,1.817.088,3.139,1.8,3.61,1.822.5,2.91-.347,3.41-2.181l.841-3.063Z" transform="translate(-108.055 -72.591)" fill="#fff"/>
    <path id="패스_61" data-name="패스 61" d="M254.706,205.927c1.517-3.1,4.55-4.133,7.789-2.551,3.145,1.54,4.415,4.444,2.9,7.525a5.272,5.272,0,0,1-7.631,2.322,1.256,1.256,0,0,1-.453-1.822l2.863-5.855a2.587,2.587,0,0,0-3.368,1.481,4.056,4.056,0,0,0-.423,2.6,1.21,1.21,0,1,1-2.334.623,6.355,6.355,0,0,1,.653-4.321Zm8.512,3.927c.623-1.276.294-2.334-1.058-3.345l-2.2,4.5a2.435,2.435,0,0,0,3.263-1.164Z" transform="translate(-103.347 -82.89)" fill="#fff"/>
    <path id="패스_62" data-name="패스 62" d="M242.352,226.673c1.329-1.834,3.357-2.64,6.1-.641l3.809,2.769.835-1.146a1.158,1.158,0,0,1,1.7-.282,1.193,1.193,0,0,1,.27,1.717l-.835,1.146,2.745,1.993a1.412,1.412,0,0,1-1.658,2.281l-2.745-1.993-1.728,2.381a1.194,1.194,0,0,1-1.717.27,1.175,1.175,0,0,1-.259-1.7l1.728-2.381-3.98-2.892c-1.117-.811-1.846-.741-2.322-.088a2.465,2.465,0,0,0-.37,1.875,1.178,1.178,0,0,1-1.123,1.434c-.629.041-1.14-.306-1.34-1.182a4.465,4.465,0,0,1,.876-3.551Z" transform="translate(-98.188 -92.049)" fill="#fff"/>
    <path id="패스_63" data-name="패스 63" d="M238.643,256.107l-3.21,2.7c-2.8,2.357-5.932,2.052-7.86-.241-1.952-2.322-1.617-5.344,1.188-7.7l2.446-2.058L228,244.99a1.23,1.23,0,0,1,.212-1.922,1.266,1.266,0,0,1,1.946.112l8.771,10.441A1.687,1.687,0,0,1,238.643,256.107Zm-5.838-5.4-2.428,2.04c-1.44,1.211-1.717,2.634-.57,4,1.217,1.446,2.587,1.37,4.045.147l2.428-2.04-3.48-4.139Z" transform="translate(-91.987 -99.385)" fill="#fff"/>
    <path id="패스_64" data-name="패스 64" d="M214.107,267.348a3.532,3.532,0,0,1-1.817,2.64,3.381,3.381,0,0,1-2,.558,1.187,1.187,0,0,1-1.146-1.246c.012-.523.347-1.041,1.211-1.2a3.225,3.225,0,0,0,1.064-.406c1.135-.664,1.558-2.116.617-3.88L209.5,259.5a1.409,1.409,0,0,1,2.428-1.423l4.568,7.789a1.411,1.411,0,0,1-2.393,1.481Z" transform="translate(-84.899 -105.452)" fill="#fff"/>
    <path id="패스_65" data-name="패스 65" d="M193.388,271.961a4.5,4.5,0,1,0-.006.006Zm-6.825-1.193c-1.664.629-2.451,2.328-1.681,4.374s2.481,2.8,4.144,2.181c1.681-.635,2.469-2.334,1.7-4.38s-2.481-2.8-4.162-2.175Z" transform="translate(-73.65 -109.877)" fill="#fff"/>
    <path id="패스_66" data-name="패스 66" d="M162.23,274.975c2.228-.4,4.25.423,4.844,3.768l.829,4.632,1.4-.247a1.161,1.161,0,0,1,1.423.976,1.2,1.2,0,0,1-.993,1.429l-1.4.247.6,3.339a1.408,1.408,0,0,1-2.769.494l-.6-3.339-2.9.517a1.194,1.194,0,0,1-1.423-.993,1.174,1.174,0,0,1,.993-1.405l2.9-.517-.864-4.844c-.241-1.358-.817-1.817-1.611-1.67a2.436,2.436,0,0,0-1.57,1.1,1.18,1.18,0,0,1-1.8.259,1.266,1.266,0,0,1-.147-1.781,4.478,4.478,0,0,1,3.092-1.952Z" transform="translate(-64.172 -112.662)" fill="#fff"/>
    <path id="패스_67" data-name="패스 67" d="M141.777,276.589c3.451-.053,5.749,2.175,5.808,5.785.059,3.5-1.958,5.949-5.385,6a5.271,5.271,0,0,1-5.532-5.743c.029-.846.635-1.217,1.423-1.234l6.519-.106a2.587,2.587,0,0,0-2.851-2.328,4.041,4.041,0,0,0-2.5.805,1.209,1.209,0,1,1-1.617-1.793,6.4,6.4,0,0,1,4.15-1.382Zm.364,9.371c1.417-.024,2.21-.8,2.5-2.457l-5.015.082a2.428,2.428,0,0,0,2.516,2.375Z" transform="translate(-55.031 -113.365)" fill="#fff"/>
    <path id="패스_68" data-name="패스 68" d="M119.113,274.478a5.894,5.894,0,0,1-1.975,11.622,5.423,5.423,0,0,1-3.339-1.711,1.2,1.2,0,0,1,.153-1.675,1.418,1.418,0,0,1,1.787.112,3.549,3.549,0,0,0,1.781.882c1.775.3,3.192-.594,3.586-2.9.382-2.257-.658-3.7-2.41-4a3.344,3.344,0,0,0-2.181.317,1.42,1.42,0,0,1-1.887-.388,1.13,1.13,0,0,1,.435-1.687,6.014,6.014,0,0,1,4.05-.582Z" transform="translate(-45.494 -112.447)" fill="#fff"/>
    <path id="패스_69" data-name="패스 69" d="M98.36,268.688c2.14.747,3.492,2.457,2.375,5.655l-1.552,4.444,1.34.464a1.153,1.153,0,0,1,.758,1.546,1.2,1.2,0,0,1-1.564.758l-1.34-.47-1.117,3.2a1.409,1.409,0,0,1-2.657-.929l1.117-3.2-2.775-.97a1.194,1.194,0,0,1-.752-1.564,1.17,1.17,0,0,1,1.558-.735l2.775.97,1.623-4.644c.453-1.3.176-1.981-.582-2.246a2.466,2.466,0,0,0-1.9.188,1.183,1.183,0,0,1-1.7-.658,1.274,1.274,0,0,1,.747-1.628,4.449,4.449,0,0,1,3.651-.182Z" transform="translate(-36.669 -109.984)" fill="#fff"/>
    <path id="패스_70" data-name="패스 70" d="M67.483,254.1c3.474,2.3,4.4,6.661,1.511,11-2.816,4.239-7.378,5.414-10.8,3.139a6.17,6.17,0,0,1-2.945-3.792,1.216,1.216,0,0,1,.782-1.44,1.267,1.267,0,0,1,1.652.917,4.576,4.576,0,0,0,1.852,2.3c2.046,1.358,4.868.658,7.072-2.663,2.181-3.286,1.652-6.055-.464-7.46a4.251,4.251,0,0,0-3.3-.688,1.368,1.368,0,0,1-1.64-1.011,1.326,1.326,0,0,1,1.135-1.564,7,7,0,0,1,5.144,1.246Z" transform="translate(-21.463 -103.54)" fill="#fff"/>
    <path id="패스_71" data-name="패스 71" d="M52.4,239.777c2.463,2.416,2.487,5.62-.035,8.195-2.451,2.5-5.608,2.787-8.06.382a5.265,5.265,0,0,1,.206-7.971,1.255,1.255,0,0,1,1.875.147l4.65,4.562a2.589,2.589,0,0,0-.347-3.668,4,4,0,0,0-2.334-1.217,1.212,1.212,0,1,1,.141-2.416,6.4,6.4,0,0,1,3.9,1.981Zm-6.414,6.837c1.011.993,2.122,1.011,3.5.053l-3.58-3.51A2.427,2.427,0,0,0,45.982,246.614Z" transform="translate(-16.252 -97.375)" fill="#fff"/>
    <path id="패스_72" data-name="패스 72" d="M30.647,229.579a3.838,3.838,0,0,1-2.869-1.787c-1.887-2.681-.888-5.355,2.134-7.325l3.674-2.587a1.262,1.262,0,0,1,1.911.394,1.284,1.284,0,0,1-.276,1.928l-3.78,2.657c-1.981,1.317-2.4,2.516-1.44,3.886.911,1.3,2.346,1.534,4.027.453l4.092-2.881a1.256,1.256,0,0,1,1.9.376,1.291,1.291,0,0,1-.265,1.946l-7.39,5.2a1.277,1.277,0,0,1-1.922-.412,1.26,1.26,0,0,1,.2-1.852Z" transform="translate(-9.759 -89.053)" fill="#fff"/>
    <path id="패스_73" data-name="패스 73" d="M23.636,201.781c.958,2.052.682,4.215-2.387,5.649l-4.262,1.993.6,1.287a1.155,1.155,0,0,1-.576,1.623,1.2,1.2,0,0,1-1.634-.588l-.6-1.287L11.7,211.9a1.248,1.248,0,0,1-1.8-.7,1.259,1.259,0,0,1,.611-1.852l3.075-1.44-1.246-2.663a1.2,1.2,0,0,1,.594-1.634,1.171,1.171,0,0,1,1.617.6l1.246,2.663,4.456-2.087c1.246-.582,1.54-1.258,1.2-1.987a2.42,2.42,0,0,0-1.464-1.229,1.174,1.174,0,0,1-.711-1.675,1.266,1.266,0,0,1,1.687-.6,4.477,4.477,0,0,1,2.687,2.481Z" transform="translate(-2.712 -81.472)" fill="#fff"/>
    <path id="패스_74" data-name="패스 74" d="M18.849,182.651c.9,3.333-.705,6.108-4.186,7.043-3.38.911-6.243-.441-7.137-3.751a5.269,5.269,0,0,1,4.215-6.766,1.252,1.252,0,0,1,1.54,1.076l1.7,6.3a2.586,2.586,0,0,0,1.558-3.333,4.056,4.056,0,0,0-1.393-2.234,1.21,1.21,0,1,1,1.346-2,6.349,6.349,0,0,1,2.351,3.686ZM9.86,185.3c.37,1.37,1.317,1.946,2.992,1.822l-1.305-4.844A2.433,2.433,0,0,0,9.86,185.3Z" transform="translate(-1.718 -73.035)" fill="#fff"/>
    <path id="패스_75" data-name="패스 75" d="M4.81,165.908a3.529,3.529,0,0,1-1.64-2.745,3.426,3.426,0,0,1,.323-2.052,1.187,1.187,0,0,1,1.611-.523,1.272,1.272,0,0,1,.588,1.6,3.261,3.261,0,0,0-.076,1.135c.129,1.305,1.276,2.293,3.269,2.181L13.863,165a1.408,1.408,0,0,1,.282,2.8l-8.989.911a1.235,1.235,0,0,1-1.47-1.276,1.25,1.25,0,0,1,1.123-1.517Z" transform="translate(0 -65.504)" fill="#fff"/>
  </g>
</svg>
