<svg xmlns="http://www.w3.org/2000/svg" width="51.83" height="51.83" viewBox="0 0 51.83 51.83">
  <path id="camera_icon" d="M126.324-841.954h19.935a21.561,21.561,0,0,0-5.666-8.291,20.678,20.678,0,0,0-8.813-4.845l-6.537,11.247a1.133,1.133,0,0,0,0,1.26,1.2,1.2,0,0,0,1.082.629Zm-9.243,3.567a1.2,1.2,0,0,0,1.08.629,1.2,1.2,0,0,0,1.082-.629l10.041-17.244a15.215,15.215,0,0,0-1.684-.209q-.934-.068-1.684-.068a20.651,20.651,0,0,0-8.388,1.7,23.639,23.639,0,0,0-6.888,4.569Zm-12.307,9.758h12.979a1.252,1.252,0,0,0,1.1-.629,1.1,1.1,0,0,0,.025-1.259l-9.936-17.2a22.946,22.946,0,0,0-3.567,6.31,20.787,20.787,0,0,0-1.28,7.32,21.712,21.712,0,0,0,.17,2.762A23.345,23.345,0,0,0,104.774-828.629ZM120.1-813.08l6.494-11.247a1.1,1.1,0,0,0-.025-1.26,1.252,1.252,0,0,0-1.1-.629h-19.9a21.437,21.437,0,0,0,5.692,8.291A20.875,20.875,0,0,0,120.1-813.08Zm5.812.818a20.652,20.652,0,0,0,8.388-1.7,23.641,23.641,0,0,0,6.888-4.569l-6.442-11.247a1.2,1.2,0,0,0-1.08-.629,1.2,1.2,0,0,0-1.082.629l-9.989,17.2a13.587,13.587,0,0,0,1.624.244Q125.1-812.262,125.915-812.262Zm16.976-8.194a24.056,24.056,0,0,0,3.515-6.3,20.45,20.45,0,0,0,1.333-7.326,21.713,21.713,0,0,0-.171-2.762,23.346,23.346,0,0,0-.511-2.694H134.077a1.252,1.252,0,0,0-1.1.629,1.1,1.1,0,0,0-.025,1.259l9.936,17.2ZM125.915-834.085Zm-.008,25.915a25.09,25.09,0,0,1-10.047-2.039,26.264,26.264,0,0,1-8.253-5.567,26.264,26.264,0,0,1-5.567-8.253A25.091,25.091,0,0,1,100-834.077a25.057,25.057,0,0,1,2.043-10.091,26.349,26.349,0,0,1,5.564-8.225,26.265,26.265,0,0,1,8.252-5.564A25.078,25.078,0,0,1,125.907-860,25.066,25.066,0,0,1,136-857.957a26.341,26.341,0,0,1,8.228,5.564,26.349,26.349,0,0,1,5.564,8.225,25.057,25.057,0,0,1,2.043,10.091,25.072,25.072,0,0,1-2.043,10.051,26.273,26.273,0,0,1-5.564,8.249A26.348,26.348,0,0,1,136-810.213,25.057,25.057,0,0,1,125.907-808.17Z" transform="translate(-100 860)" fill="#fff"/>
</svg>
