<svg xmlns="http://www.w3.org/2000/svg" width="15" height="15" viewBox="0 0 15 15">
  <path id="family_ico" d="M108.314-852.5l-2.019,2.019a.547.547,0,0,0-.164.405.6.6,0,0,0,.164.419.553.553,0,0,0,.422.18.589.589,0,0,0,.422-.18L109.483-852a.685.685,0,0,0,.214-.5.685.685,0,0,0-.214-.5l-2.356-2.356a.561.561,0,0,0-.416-.174.566.566,0,0,0-.416.186.6.6,0,0,0-.166.416.561.561,0,0,0,.174.416ZM107.5-845a7.3,7.3,0,0,1-2.925-.591,7.578,7.578,0,0,1-2.382-1.6,7.576,7.576,0,0,1-1.6-2.381A7.3,7.3,0,0,1,100-852.5a7.306,7.306,0,0,1,.591-2.925,7.575,7.575,0,0,1,1.6-2.382,7.577,7.577,0,0,1,2.381-1.6A7.3,7.3,0,0,1,107.5-860a7.3,7.3,0,0,1,2.925.591,7.576,7.576,0,0,1,2.382,1.6,7.576,7.576,0,0,1,1.6,2.381A7.3,7.3,0,0,1,115-852.5a7.307,7.307,0,0,1-.591,2.925,7.573,7.573,0,0,1-1.6,2.382,7.574,7.574,0,0,1-2.381,1.6A7.3,7.3,0,0,1,107.5-845Zm0-1.184a6.1,6.1,0,0,0,4.48-1.835,6.1,6.1,0,0,0,1.836-4.48,6.1,6.1,0,0,0-1.836-4.48,6.1,6.1,0,0,0-4.48-1.836,6.1,6.1,0,0,0-4.48,1.836,6.1,6.1,0,0,0-1.836,4.48,6.1,6.1,0,0,0,1.836,4.48A6.1,6.1,0,0,0,107.5-846.184ZM107.5-852.5Z" transform="translate(-100 860)" fill="#2d2d2d"/>
</svg>
