<svg xmlns="http://www.w3.org/2000/svg" xmlns:xlink="http://www.w3.org/1999/xlink" width="299" height="47.941" viewBox="0 0 299 47.941">
  <defs>
    <clipPath id="clip-path">
      <rect id="사각형_15" data-name="사각형 15" width="164.334" height="47.941" fill="none"/>
    </clipPath>
  </defs>
  <g id="logo" transform="translate(-330 -25.529)">
    <g id="logo-2" data-name="logo" transform="translate(330 25.53)">
      <g id="그룹_1" data-name="그룹 1" transform="translate(0 0)" clip-path="url(#clip-path)">
        <path id="패스_2" data-name="패스 2" d="M118.7,16.074a2.466,2.466,0,0,1-1.969.985,2.427,2.427,0,0,1-1.951-.968,3.485,3.485,0,0,1,0-4.42,2.44,2.44,0,0,1,1.951-.951,2.562,2.562,0,0,1,1.969.9,3.234,3.234,0,0,1,.809,2.238,3.408,3.408,0,0,1-.809,2.219M136.9,14.939h-4.322V8.312h-6.732V9.694h.665a1.245,1.245,0,0,1,1,.386,1.218,1.218,0,0,1,.33.8V20.4a8.426,8.426,0,0,1-1.527.29c-.6.064-1.493.1-2.315.1h-4.933v-1.6a7.875,7.875,0,0,0,3.587-2.027,4.629,4.629,0,0,0,1.346-3.27,4.862,4.862,0,0,0-2.16-4,9.166,9.166,0,0,0-10.428,0,4.875,4.875,0,0,0-2.144,4,4.631,4.631,0,0,0,1.347,3.27,7.74,7.74,0,0,0,3.516,2.027v1.6h-6.7v2.751h15.241c1.176,0,2.34-.025,3.126-.07a11.115,11.115,0,0,0,2.044-.29V26.8h4.74V17.64H136.9ZM132.9,30.615H118.277a.571.571,0,0,1-.366-.11.379.379,0,0,1-.132-.3V25.146h-6.9v1.379h.666a1.36,1.36,0,0,1,1,.332,1.086,1.086,0,0,1,.334.8v3.53a2.053,2.053,0,0,0,.665,1.7,3.178,3.178,0,0,0,2.028.537H132.9Z" transform="translate(-28.886 -2.221)" fill="#fff"/>
        <path id="패스_3" data-name="패스 3" d="M151.419,13a1.112,1.112,0,0,0-.321-.8,1.3,1.3,0,0,0-.963-.33h-.642V10.49H173.1v2.595H156.184v6.587a.5.5,0,0,0,.177.414.686.686,0,0,0,.433.137H173.26v2.541H155.11A4.265,4.265,0,0,1,152.3,22a3.178,3.178,0,0,1-.882-2.524Zm13.216,16.625h11.2v2.729H148.614V29.626h11.257l-.036-2.755a1,1,0,0,0-.3-.758,1.147,1.147,0,0,0-.82-.289H158.2V24.47h6.4Z" transform="translate(-39.963 -2.821)" fill="#fff"/>
        <path id="패스_4" data-name="패스 4" d="M195.846,24.925v5.958a.376.376,0,0,0,.127.3.517.517,0,0,0,.353.11h16.08v2.6H193.712a3.014,3.014,0,0,1-1.961-.537,2.1,2.1,0,0,1-.639-1.7V27.439a1.116,1.116,0,0,0-.322-.8,1.284,1.284,0,0,0-.964-.331h-.64V24.925ZM211.1,19h3.557v2.755H204.112v5.882h-4.955V21.754h-12.04V19h19.275a4.085,4.085,0,0,0,.624-1.741,25.789,25.789,0,0,0,.11-2.663V13.049a.538.538,0,0,0-.128-.415.834.834,0,0,0-.51-.111H189.826V9.891h21.752a.357.357,0,0,1,.241.067.273.273,0,0,1,.079.209v4.084a21.516,21.516,0,0,1-.176,3.079A3.86,3.86,0,0,1,211.1,19" transform="translate(-50.317 -2.66)" fill="#fff"/>
        <path id="패스_5" data-name="패스 5" d="M110.764,47.553l1.127,5.431,1.415-5.431h1.758l1.276,5.431,1.174-5.431H119L117.152,54.8h-1.725L114.11,49.26,112.694,54.8h-1.766l-1.768-7.248Z" transform="translate(-29.353 -12.787)" fill="#fff"/>
        <path id="패스_6" data-name="패스 6" d="M124.531,52.029l1.075-3.092,1,3.092Zm.19-4.517-2.62,7.257h1.486l.542-1.565H127l.521,1.565h1.567l-2.522-7.257Z" transform="translate(-32.834 -12.776)" fill="#fff"/>
        <path id="패스_7" data-name="패스 7" d="M132.594,47.512h2.25l2.719,5.713V47.512h1.448v7.257h-2.139l-2.811-6.023v6.023h-1.466Z" transform="translate(-35.655 -12.776)" fill="#fff"/>
        <path id="패스_8" data-name="패스 8" d="M144.757,48.713a5.058,5.058,0,0,1,1.627.1,2.074,2.074,0,0,1,1.325,2.24,3.074,3.074,0,0,1-.654,2.047,2.178,2.178,0,0,1-1.685.5c-.181,0-.442-.012-.613-.022Zm-1.576,6.063h2.259a6.835,6.835,0,0,0,1.306-.08c1.374-.249,2.571-1.412,2.571-3.643a3.464,3.464,0,0,0-1.235-2.853,4.389,4.389,0,0,0-2.5-.651l-2.4-.012Z" transform="translate(-38.502 -12.783)" fill="#fff"/>
        <path id="패스_9" data-name="패스 9" d="M154.309,51.141a3.365,3.365,0,0,1,.534-2.108,1.651,1.651,0,0,1,1.335-.613,1.676,1.676,0,0,1,1.657,1.286A4.156,4.156,0,0,1,158.018,51a3.5,3.5,0,0,1-.494,2.077,1.47,1.47,0,0,1-1.355.673,1.5,1.5,0,0,1-1.316-.581,3.343,3.343,0,0,1-.543-2.028m-1.627.051a3.987,3.987,0,0,0,.893,2.709,3.521,3.521,0,0,0,2.573,1,3.45,3.45,0,0,0,2.58-1.037,4.456,4.456,0,0,0,.913-2.84,4.177,4.177,0,0,0-.923-2.732,3.364,3.364,0,0,0-2.55-.985c-2.611,0-3.486,1.958-3.486,3.888" transform="translate(-41.057 -12.72)" fill="#fff"/>
        <path id="패스_10" data-name="패스 10" d="M171.515,49.866c-.03-.251-.121-1.273-1.174-1.273-1.155,0-1.637,1.2-1.637,2.7,0,.431,0,2.491,1.516,2.491a1.275,1.275,0,0,0,1.3-1.374h1.638a2.483,2.483,0,0,1-.654,1.7,2.838,2.838,0,0,1-2.117.814c-2.5,0-3.313-1.847-3.313-3.643,0-2.3,1.285-3.826,3.324-3.826a2.443,2.443,0,0,1,2.7,2.41Z" transform="translate(-44.928 -12.761)" fill="#fff"/>
        <path id="패스_11" data-name="패스 11" d="M177.973,51.141a3.365,3.365,0,0,1,.532-2.108,1.648,1.648,0,0,1,1.335-.613,1.677,1.677,0,0,1,1.657,1.286A4.193,4.193,0,0,1,181.679,51a3.508,3.508,0,0,1-.492,2.077,1.474,1.474,0,0,1-1.357.673,1.5,1.5,0,0,1-1.316-.581,3.36,3.36,0,0,1-.54-2.028m-1.627.051a3.973,3.973,0,0,0,.894,2.709,3.514,3.514,0,0,0,2.571,1,3.452,3.452,0,0,0,2.581-1.037,4.45,4.45,0,0,0,.917-2.84,4.157,4.157,0,0,0-.928-2.732,3.368,3.368,0,0,0-2.55-.985c-2.608,0-3.484,1.958-3.484,3.888" transform="translate(-47.42 -12.72)" fill="#fff"/>
        <path id="패스_12" data-name="패스 12" d="M188.717,47.537v4.419c0,.793.061,1.786,1.578,1.786a1.6,1.6,0,0,0,1.4-.631,2.044,2.044,0,0,0,.231-1.236V47.537h1.516v4.53c0,2.157-1.717,2.85-3.182,2.85a3.138,3.138,0,0,1-2.731-1.255,3.083,3.083,0,0,1-.372-1.788V47.537Z" transform="translate(-50.328 -12.783)" fill="#fff"/>
        <path id="패스_13" data-name="패스 13" d="M197.65,47.512H199.9l2.722,5.713V47.512h1.446v7.257h-2.138l-2.812-6.023v6.023H197.65Z" transform="translate(-53.149 -12.776)" fill="#fff"/>
        <path id="패스_14" data-name="패스 14" d="M209.7,48.717h-2.16v-1.2h5.884v1.2h-2.158v6.052H209.7Z" transform="translate(-55.808 -12.776)" fill="#fff"/>
        <path id="패스_15" data-name="패스 15" d="M217.627,47.553l1.5,3.3,1.525-3.3h1.6l-2.45,4.588V54.78h-1.539V52.119l-2.448-4.566Z" transform="translate(-58.032 -12.787)" fill="#fff"/>
        <path id="패스_16" data-name="패스 16" d="M68.058,23.971c0,13.238-15.236,23.97-34.032,23.97S0,37.209,0,23.971,15.236,0,34.027,0,68.058,10.735,68.058,23.971" transform="translate(0 0)" fill="#0d3896"/>
        <path id="패스_17" data-name="패스 17" d="M38.886,44.966C24.332,44.31,23.924,43.647,26.6,43.59c0,0,54.69-2.348,13.584-5.4,0,0-6.6-.526,11.042-1.073,0,0,4.54-.8-19-2.388,0,0,4.7-2.143,20.33-1.529L47.442,22.707s-.836-4.351-1.2-5.808S44.939.454,44.939.454c-1.542.194-3.4.331-3.4.331C35.108.434,25.661,3.639,25.661,3.639l-2.119.431-.151,2.741a20.8,20.8,0,0,1,.151,5.624c.132,2.427-3.147,7.885-3.147,7.885l2.03,5.824-.1,3.453,2.122,5.192s13.238,1.369,16.969,1.187c0,0,8.444.409-3.086.946,0,0-32.387-.126-23.861,1.224,0,0,15.235,1.309,23.215,1.863,0,0,8.794,1.019-13.8,2.35,0,0-10.587.814-.417,2.795,0,0,16.722,2.612,30.8.015,0,0,4.621-1.32-1.665-.72,0,0-12.23.584-13.723.517" transform="translate(-3.507 -0.122)" fill="#fff"/>
        <path id="패스_18" data-name="패스 18" d="M76.969,30.278s-9.762-.534-11.147,2.2c0,0-3.043,4.342,8.431,3.382,0,0-.83-3.011,2.716-5.582" transform="translate(-17.601 -8.13)" fill="#fc0"/>
        <path id="패스_19" data-name="패스 19" d="M45.451,23.63s-9.732-.545-11.116,2.269c0,0-3.035,4.463,8.405,3.473,0,0-.826-3.095,2.711-5.742" transform="translate(-9.135 -6.343)" fill="#40a629"/>
        <path id="패스_20" data-name="패스 20" d="M60.354,10.3s-9.5-.529-10.847,2.188c0,0-2.961,4.305,8.2,3.355,0,0-.808-2.991,2.644-5.543" transform="translate(-13.217 -2.758)" fill="#ff7f00"/>
      </g>
    </g>
    <rect id="사각형_16" data-name="사각형 16" width="3" height="24" transform="translate(520 38)" fill="#fff" opacity="0.4"/>
    <text id="청산도" transform="translate(542 61)" fill="#fff" font-size="30" font-family="S-CoreDream-4Regular, 'S-Core Dream \34 '"><tspan x="0" y="0">청산도</tspan></text>
  </g>
</svg>
