<svg xmlns="http://www.w3.org/2000/svg" width="30" height="30" viewBox="0 0 30 30">
  <path id="more_a" d="M116.627-845l-4.039,4.039a1.093,1.093,0,0,0-.328.81,1.19,1.19,0,0,0,.328.838,1.105,1.105,0,0,0,.844.36,1.179,1.179,0,0,0,.844-.36L118.966-844a1.369,1.369,0,0,0,.428-1,1.369,1.369,0,0,0-.428-1l-4.712-4.712a1.123,1.123,0,0,0-.832-.348,1.133,1.133,0,0,0-.832.372,1.2,1.2,0,0,0-.332.832,1.123,1.123,0,0,0,.348.832ZM115-830a14.612,14.612,0,0,1-5.85-1.181,15.152,15.152,0,0,1-4.764-3.206,15.15,15.15,0,0,1-3.207-4.762A14.6,14.6,0,0,1,100-845a14.612,14.612,0,0,1,1.181-5.85,15.151,15.151,0,0,1,3.206-4.764,15.152,15.152,0,0,1,4.762-3.207A14.6,14.6,0,0,1,115-860a14.613,14.613,0,0,1,5.85,1.181,15.151,15.151,0,0,1,4.764,3.206,15.151,15.151,0,0,1,3.207,4.762A14.6,14.6,0,0,1,130-845a14.613,14.613,0,0,1-1.181,5.85,15.148,15.148,0,0,1-3.206,4.764,15.148,15.148,0,0,1-4.762,3.207A14.6,14.6,0,0,1,115-830Zm0-2.368a12.192,12.192,0,0,0,8.961-3.671A12.192,12.192,0,0,0,127.632-845a12.191,12.191,0,0,0-3.671-8.961A12.191,12.191,0,0,0,115-857.631a12.191,12.191,0,0,0-8.961,3.671A12.191,12.191,0,0,0,102.368-845a12.192,12.192,0,0,0,3.671,8.961A12.192,12.192,0,0,0,115-832.368ZM115-845Z" transform="translate(-100 860)" fill="#118ab2"/>
</svg>
