<svg xmlns="http://www.w3.org/2000/svg" width="35" height="35" viewBox="0 0 35 35">
  <path id="over1" d="M169-797.719a.9.9,0,0,0,.417-.791.852.852,0,0,0-.417-.772l-11.042-7.031a.866.866,0,0,0-.964-.039.883.883,0,0,0-.495.82v14.046a.889.889,0,0,0,.495.85.883.883,0,0,0,.964-.052ZM147.75-781a3.611,3.611,0,0,1-2.648-1.1,3.611,3.611,0,0,1-1.1-2.648v-27.5a3.611,3.611,0,0,1,1.1-2.648,3.611,3.611,0,0,1,2.648-1.1h27.5a3.611,3.611,0,0,1,2.648,1.1,3.611,3.611,0,0,1,1.1,2.648v27.5a3.611,3.611,0,0,1-1.1,2.648,3.611,3.611,0,0,1-2.648,1.1Zm0-3.75h27.5v-27.5h-27.5Zm0-27.5v0Z" transform="translate(-144 816)" fill="#fcc838"/>
</svg>
