<svg xmlns="http://www.w3.org/2000/svg" width="35" height="35" viewBox="0 0 35 35">
  <path id="over4" d="M64.042-907.139V-912h2.917v4.861Zm0,30.139v-4.861h2.917V-877Zm14.1-16.042v-2.917H83v2.917Zm-30.139,0v-2.917h4.861v2.917ZM75.465-902.4,73.4-904.465l3.4-3.524L78.99-905.8ZM54.238-881.051l-2.187-2.187,3.484-3.362,2.066,2.066Zm22.564,0-3.4-3.484,2.066-2.066,3.524,3.362ZM55.535-902.4l-3.484-3.4,2.188-2.187,3.362,3.524ZM65.5-884.778a9.376,9.376,0,0,1-6.887-2.836,9.376,9.376,0,0,1-2.836-6.887,9.376,9.376,0,0,1,2.836-6.887,9.376,9.376,0,0,1,6.887-2.836,9.376,9.376,0,0,1,6.887,2.836,9.376,9.376,0,0,1,2.836,6.887,9.376,9.376,0,0,1-2.836,6.887A9.376,9.376,0,0,1,65.5-884.778Zm-.01-2.876a6.542,6.542,0,0,0,4.831-2.005,6.642,6.642,0,0,0,1.985-4.851,6.559,6.559,0,0,0-1.975-4.821,6.559,6.559,0,0,0-4.821-1.975,6.592,6.592,0,0,0-4.831,1.975,6.542,6.542,0,0,0-1.985,4.821,6.66,6.66,0,0,0,1.975,4.851A6.509,6.509,0,0,0,65.49-887.654ZM65.541-894.54Z" transform="translate(-48 912)" fill="#fcc838"/>
</svg>
