<svg xmlns="http://www.w3.org/2000/svg" width="35" height="35" viewBox="0 0 35 35">
  <path id="over2" d="M161.5-832.345a17.835,17.835,0,0,1-12.4-4.606,14.553,14.553,0,0,1-5.1-11.211,14.582,14.582,0,0,1,5.1-11.222A17.827,17.827,0,0,1,161.509-864a18.441,18.441,0,0,1,6.823,1.248,18.012,18.012,0,0,1,5.537,3.392,16.126,16.126,0,0,1,3.75,5.011,14.054,14.054,0,0,1,1.38,6.177q0,5.888-4.687,11.07a34.426,34.426,0,0,1-10.052,7.867,2.071,2.071,0,0,1-.937.236,1.771,1.771,0,0,1-.885-.236,2.125,2.125,0,0,1-.677-.589,1.429,1.429,0,0,1-.26-.872Zm3.75-1.507a30.821,30.821,0,0,0,7.083-6.571,12.477,12.477,0,0,0,2.917-7.749,11.434,11.434,0,0,0-4.036-8.785,13.976,13.976,0,0,0-9.714-3.651,13.976,13.976,0,0,0-9.714,3.651,11.434,11.434,0,0,0-4.036,8.785,11.434,11.434,0,0,0,4.036,8.785,13.976,13.976,0,0,0,9.714,3.651h3.75Zm-3.75-5.276a2.118,2.118,0,0,0,1.473-.552,1.732,1.732,0,0,0,.61-1.333,1.732,1.732,0,0,0-.61-1.333,2.118,2.118,0,0,0-1.473-.552,2.118,2.118,0,0,0-1.473.552,1.732,1.732,0,0,0-.61,1.333,1.732,1.732,0,0,0,.61,1.333A2.118,2.118,0,0,0,161.5-839.128Zm-4.427-13.8a1.39,1.39,0,0,0,1.12,0,2.707,2.707,0,0,0,.964-.707,2.429,2.429,0,0,1,1.012-.754,3.615,3.615,0,0,1,1.339-.236,3,3,0,0,1,1.946.61,1.913,1.913,0,0,1,.755,1.557,2.219,2.219,0,0,1-.755,1.719q-.755.683-1.52,1.36a5.914,5.914,0,0,0-1.449,1.514,2.694,2.694,0,0,0-.443,1.39,1.646,1.646,0,0,0,.417,1.132,1.392,1.392,0,0,0,1.094.47,1.38,1.38,0,0,0,.967-.353,1.569,1.569,0,0,0,.491-.872,2.346,2.346,0,0,1,.547-1.178,10.755,10.755,0,0,1,.964-.989q.833-.754,1.771-1.672a3.5,3.5,0,0,0,.938-2.614,4.169,4.169,0,0,0-1.562-3.368,6.074,6.074,0,0,0-4.01-1.3,6.973,6.973,0,0,0-3.047.636,4.879,4.879,0,0,0-1.953,1.531,1.579,1.579,0,0,0-.313,1.225A1.076,1.076,0,0,0,157.073-852.93ZM161.5-847.23Z" transform="translate(-144 864)" fill="#fcc838"/>
</svg>
