<svg width="180" height="60" viewBox="0 0 180 60" fill="none" xmlns="http://www.w3.org/2000/svg">
<g clip-path="url(#clip0_19_338)">
<path d="M52.6544 45.6224C51.4245 45.1808 51.1914 44.8864 51.1914 44.3799C51.1914 43.8733 51.5453 43.4707 52.3868 43.4707C53.004 43.4707 53.4139 43.6742 53.8628 44.0465L54.303 43.5053C53.7851 43.0897 53.2586 42.8473 52.43 42.8473C51.282 42.8473 50.5052 43.4361 50.5052 44.4232C50.5052 45.315 50.954 45.7479 52.2833 46.2242C53.4096 46.6311 53.7506 46.9558 53.7506 47.5273C53.7506 48.181 53.2413 48.588 52.4257 48.588C51.7913 48.588 51.2561 48.2936 50.7901 47.8476L50.3369 48.3585C50.8203 48.8521 51.5669 49.2157 52.4041 49.2157C53.6858 49.2157 54.4411 48.4624 54.4411 47.497C54.4411 46.5315 54.0224 46.1203 52.6587 45.6267L52.6544 45.6224Z" fill="white"/>
<path d="M57.2288 44.3928C56.6289 44.3928 56.0852 44.54 55.6795 44.7608L55.9298 45.2976C56.3053 45.0768 56.7023 44.9426 57.1857 44.9426C57.8589 44.9426 58.1869 45.276 58.1869 45.9687V46.5142C57.915 46.3627 57.4964 46.2458 57.0346 46.2458C56.124 46.2458 55.2695 46.6874 55.2695 47.7264C55.2695 48.8434 56.0248 49.207 56.7412 49.207C57.4058 49.207 57.8589 48.8953 58.1869 48.5446V49.1118H58.8429V45.8821C58.8429 44.8084 58.2214 44.3842 57.2288 44.3842V44.3928ZM58.1869 47.9818C57.9064 48.3671 57.4575 48.6745 56.862 48.6745C56.2966 48.6745 55.9169 48.3758 55.9169 47.6874C55.9169 47.1073 56.3225 46.7783 57.0001 46.7783C57.5611 46.7783 57.8848 46.8822 58.1869 47.0467V47.9861V47.9818Z" fill="white"/>
<path d="M65.4634 46.406V49.1161H66.1193V46.2977C66.1193 44.947 65.5324 44.3928 64.5916 44.3928C63.8407 44.3928 63.4652 44.7435 63.1933 45.1851C62.9732 44.7435 62.5805 44.3928 61.9289 44.3928C61.3851 44.3928 60.9967 44.6569 60.7593 45.0552V44.4924H60.0947V49.1204H60.7593V46.4103C60.7593 45.3842 61.1521 44.9643 61.7864 44.9643C62.4208 44.9643 62.779 45.3496 62.779 46.4103V49.1204H63.4393V46.4103C63.4393 45.3842 63.8407 44.9643 64.4664 44.9643C65.1311 44.9643 65.459 45.3496 65.459 46.4103L65.4634 46.406Z" fill="white"/>
<path d="M68.765 46.4233C67.9838 46.0683 67.7508 45.9168 67.7508 45.5228C67.7508 45.1851 68.027 44.9514 68.5146 44.9514C69.0023 44.9514 69.3044 45.0812 69.6626 45.367L70.0294 44.8778C69.6799 44.5877 69.1879 44.3885 68.5578 44.3885C67.7163 44.3885 67.1164 44.8648 67.1164 45.5661C67.1164 46.3064 67.5005 46.5878 68.4283 46.9861C69.244 47.3368 69.5159 47.549 69.5159 47.9299C69.5159 48.3802 69.2181 48.6443 68.5837 48.6443C68.1262 48.6443 67.6947 48.4581 67.3279 48.1334L66.9395 48.614C67.3796 48.969 67.932 49.2071 68.5664 49.2071C69.3648 49.2071 70.146 48.8131 70.146 47.8996C70.146 47.0727 69.6367 46.8173 68.7606 46.419L68.765 46.4233Z" fill="white"/>
<path d="M73.9955 47.194C73.9955 48.207 73.4906 48.6356 72.8562 48.6356C72.1139 48.6356 71.7644 48.1897 71.7644 47.194V44.4882H71.1084V47.3065C71.1084 48.6356 71.7514 49.2114 72.7224 49.2114C73.305 49.2114 73.7323 48.9387 73.9955 48.5491V49.1162H74.6558V44.4882H73.9955V47.194Z" fill="white"/>
<path d="M79.3164 49.1161V46.2977C79.3164 44.9643 78.6734 44.3928 77.698 44.3928C77.1197 44.3928 76.6882 44.6656 76.4293 45.0552V44.4924H75.7646V49.1204H76.4293V46.4103C76.4293 45.3972 76.9255 44.9643 77.5643 44.9643C78.3022 44.9643 78.6561 45.4145 78.6561 46.4103V49.1204H79.3164V49.1161Z" fill="white"/>
<path d="M81.3919 50.3111L81.6034 50.8133C83.3167 50.7613 83.9382 50.0903 83.9382 48.6962V44.4838H83.2779V45.0033C82.9542 44.631 82.5572 44.3885 81.9789 44.3885C81.0122 44.3885 80.2354 45.2328 80.2354 46.8736C80.2354 48.5144 80.969 49.2071 81.8882 49.2071C82.514 49.2071 82.9542 48.8954 83.2779 48.5447V48.7828C83.2779 49.8608 82.9283 50.2678 81.3876 50.3067L81.3919 50.3111ZM82.0565 48.6356C81.3272 48.6356 80.887 48.0295 80.887 46.8649C80.887 45.6224 81.2625 44.96 82.0306 44.96C82.5787 44.96 83.0232 45.2674 83.2779 45.6527V47.9689C82.9542 48.3759 82.5485 48.6356 82.0565 48.6356Z" fill="white"/>
<path d="M91.2144 45.986C91.2144 43.869 90.0233 42.9425 88.4092 42.9425H86.7822V49.1161H88.2884C89.9326 49.1161 91.2144 48.2243 91.2144 45.986ZM87.4684 43.5659H88.3574C89.773 43.5659 90.5282 44.4318 90.5282 46.0077C90.5282 47.7827 89.6996 48.4884 88.3747 48.4884H87.4684V43.5659Z" fill="white"/>
<path d="M92.9708 45.0596V44.4881H92.3105V49.1162H92.9708V46.3974C92.9708 45.5142 93.3333 44.999 93.9764 44.999C94.2828 44.999 94.4813 45.0683 94.6669 45.1765L94.8309 44.5098C94.6755 44.4405 94.4554 44.3972 94.1102 44.3972C93.6139 44.3972 93.178 44.6959 92.9708 45.0639V45.0596Z" fill="white"/>
<path d="M98.7753 48.6746L98.4646 48.1984C98.0416 48.4798 97.7266 48.6399 97.1871 48.6399C96.4362 48.6399 95.9658 48.0122 95.9054 47.0294H98.9781C98.9997 46.9212 99.0083 46.826 99.0083 46.6701C99.0083 45.3497 98.3524 44.3972 97.1483 44.3972C96.0521 44.3972 95.2451 45.3107 95.2451 46.7783C95.2451 48.601 96.2722 49.2157 97.1181 49.2157C97.8129 49.2157 98.2186 49.0296 98.7753 48.6789V48.6746ZM97.1483 44.9644C97.9553 44.9644 98.3437 45.5921 98.3955 46.4883H95.9054C95.9831 45.4536 96.4621 44.9644 97.1483 44.9644Z" fill="white"/>
<path d="M101.209 49.2114C101.869 49.2114 102.323 48.8997 102.646 48.549V49.1162H103.307V45.8865C103.307 44.8128 102.685 44.3885 101.693 44.3885C101.093 44.3885 100.549 44.5357 100.143 44.7565L100.389 45.2934C100.769 45.0726 101.162 44.9384 101.645 44.9384C102.323 44.9384 102.646 45.2717 102.646 45.9644V46.5099C102.374 46.3584 101.96 46.2415 101.498 46.2415C100.583 46.2415 99.7246 46.6831 99.7246 47.7221C99.7246 48.8391 100.484 49.2028 101.205 49.2028L101.209 49.2114ZM101.464 46.774C102.025 46.774 102.353 46.8779 102.651 47.0424V47.9819C102.37 48.3672 101.921 48.6746 101.326 48.6746C100.765 48.6746 100.381 48.3759 100.381 47.6875C100.381 47.1074 100.791 46.7783 101.464 46.7783V46.774Z" fill="white"/>
<path d="M109.927 46.406V49.1161H110.587V46.2977C110.587 44.947 110 44.3928 109.059 44.3928C108.313 44.3928 107.933 44.7435 107.665 45.1851C107.445 44.7435 107.052 44.3928 106.401 44.3928C105.853 44.3928 105.469 44.6569 105.231 45.0552V44.4924H104.575V49.1204H105.231V46.4103C105.231 45.3842 105.628 44.9643 106.263 44.9643C106.897 44.9643 107.26 45.3496 107.26 46.4103V49.1204H107.915V46.4103C107.915 45.3842 108.317 44.9643 108.947 44.9643C109.612 44.9643 109.94 45.3496 109.94 46.4103L109.927 46.406Z" fill="white"/>
<path d="M52.6544 54.8048C51.4201 54.3632 51.1957 54.0732 51.1957 53.5623C51.1957 53.0514 51.5496 52.6575 52.3911 52.6575C53.0083 52.6575 53.4226 52.8566 53.8671 53.2289L54.3073 52.6921C53.7894 52.2808 53.2586 52.0341 52.4343 52.0341C51.282 52.0341 50.5095 52.6142 50.5095 53.6099C50.5095 54.5018 50.9584 54.9304 52.2876 55.4066C53.4139 55.8179 53.7549 56.1382 53.7549 56.714C53.7549 57.3634 53.2456 57.7704 52.4257 57.7704C51.7913 57.7704 51.2561 57.476 50.7901 57.0301L50.3369 57.5409C50.8203 58.0345 51.5669 58.3938 52.4041 58.3938C53.6858 58.3938 54.4367 57.6449 54.4367 56.6751C54.4367 55.7053 54.0181 55.2984 52.6587 54.8048H52.6544Z" fill="white"/>
<path d="M57.2374 54.1468C57.7034 54.1468 58.0099 54.3114 58.3422 54.6144L58.7392 54.1209C58.3767 53.8005 57.8976 53.571 57.2805 53.571C56.3138 53.571 55.291 54.294 55.291 56.0041C55.291 57.619 56.2189 58.3896 57.233 58.3896C57.8804 58.3896 58.3292 58.1428 58.7176 57.7445L58.3206 57.3246C58.0055 57.6319 57.7078 57.8138 57.2589 57.8138C56.4433 57.8138 55.9556 57.0821 55.9556 55.9435C55.9556 54.8049 56.5123 54.1382 57.233 54.1382L57.2374 54.1468Z" fill="white"/>
<path d="M61.5574 53.5754C60.9791 53.5754 60.5432 53.8481 60.28 54.2378V52.0645H59.624V58.3073H60.28V55.5972C60.28 54.5841 60.7849 54.1512 61.4236 54.1512C62.1659 54.1512 62.5155 54.5971 62.5155 55.5972V58.3073H63.1758V55.4803C63.1758 54.1512 62.5327 53.5754 61.5574 53.5754Z" fill="white"/>
<path d="M66.1189 53.5753C64.9969 53.5753 64.1035 54.4195 64.1035 55.9911C64.1035 57.5626 64.9623 58.3982 66.0844 58.3982C67.2064 58.3982 68.1084 57.528 68.1084 55.9564C68.1084 54.3849 67.241 53.5753 66.1189 53.5753ZM66.106 57.8224C65.3033 57.8224 64.7638 57.1903 64.7638 55.9738C64.7638 54.7572 65.3033 54.1511 66.106 54.1511C66.9087 54.1511 67.4481 54.7572 67.4481 55.9738C67.4481 57.1903 66.9044 57.8224 66.106 57.8224Z" fill="white"/>
<path d="M69.7619 52.0601H69.1016V58.3029H69.7619V52.0601Z" fill="white"/>
<path d="M72.7782 53.5753C72.1783 53.5753 71.6346 53.7268 71.2332 53.9476L71.4792 54.4888C71.859 54.268 72.256 54.1338 72.7394 54.1338C73.4126 54.1338 73.7406 54.4715 73.7406 55.1555V55.7053C73.4687 55.5538 73.0544 55.4369 72.5926 55.4369C71.6777 55.4369 70.8232 55.8785 70.8232 56.9219C70.8232 58.0388 71.5785 58.3982 72.2992 58.3982C72.9595 58.3982 73.4126 58.0908 73.7406 57.7401V58.3073H74.4009V55.0819C74.4009 53.9996 73.7751 53.5796 72.7825 53.5796L72.7782 53.5753ZM73.7363 57.1643C73.4601 57.5453 73.0026 57.857 72.4114 57.857C71.8504 57.857 71.4706 57.5583 71.4706 56.8699C71.4706 56.2855 71.8762 55.9651 72.5538 55.9651C73.1148 55.9651 73.4385 56.0603 73.7363 56.2292V57.1643Z" fill="white"/>
<path d="M76.3126 54.2464V53.6662H75.6523V58.2986H76.3126V55.5798C76.3126 54.7009 76.6665 54.1771 77.3139 54.1771C77.6246 54.1771 77.8231 54.2464 78.0087 54.3546L78.177 53.6835C78.0173 53.6143 77.8015 53.5667 77.4563 53.5667C76.9643 53.5667 76.5198 53.8654 76.3169 54.242L76.3126 54.2464Z" fill="white"/>
<path d="M80.7058 55.6101C79.9247 55.2551 79.6873 55.0949 79.6873 54.7096C79.6873 54.3762 79.9678 54.1381 80.4512 54.1381C80.9345 54.1381 81.2452 54.2723 81.6034 54.5537L81.9703 54.0689C81.6164 53.7788 81.1287 53.5753 80.4943 53.5753C79.6571 53.5753 79.0486 54.0515 79.0486 54.7572C79.0486 55.4629 79.437 55.7789 80.3605 56.1729C81.1762 56.5236 81.4481 56.74 81.4481 57.1167C81.4481 57.5713 81.1503 57.831 80.5202 57.831C80.0585 57.831 79.6312 57.6449 79.2601 57.3202L78.876 57.8051C79.3162 58.1601 79.8686 58.3938 80.503 58.3938C81.3013 58.3938 82.0825 57.9955 82.0825 57.0907C82.0825 56.2595 81.5732 56.0084 80.7015 55.6101H80.7058Z" fill="white"/>
<path d="M85.0949 53.5754C84.508 53.5754 84.0808 53.8481 83.8175 54.2378V52.0645H83.1572V58.3073H83.8175V55.5972C83.8175 54.5841 84.3181 54.1512 84.9612 54.1512C85.6991 54.1512 86.0487 54.5971 86.0487 55.5972V58.3073H86.709V55.4803C86.709 54.1512 86.0703 53.5754 85.0949 53.5754Z" fill="white"/>
<path d="M88.6687 53.6663H88.0127V58.2986H88.6687V53.6663Z" fill="white"/>
<path d="M88.3531 51.8999C88.0855 51.8999 87.874 52.112 87.874 52.3805C87.874 52.6489 88.0855 52.848 88.3531 52.848C88.599 52.848 88.8105 52.6316 88.8105 52.3805C88.8105 52.112 88.599 51.8999 88.3531 51.8999Z" fill="white"/>
<path d="M92.047 53.5753C91.4255 53.5753 90.9854 53.887 90.6574 54.2377V53.6706H89.9971V60.0044H90.6574V57.7834C90.981 58.1514 91.3781 58.3982 91.9607 58.3982C92.9231 58.3982 93.6999 57.5496 93.6999 55.9131C93.6999 54.2767 92.9662 53.5753 92.047 53.5753ZM91.9046 57.8224C91.3608 57.8224 90.912 57.515 90.6574 57.1254V54.8135C90.981 54.4109 91.3867 54.1468 91.8787 54.1468C92.6123 54.1468 93.0525 54.7529 93.0525 55.9175C93.0525 57.16 92.6728 57.818 91.9089 57.818L91.9046 57.8224Z" fill="white"/>
<path d="M97.1911 52.7528H100.117V52.1294H96.5049V58.303H97.1911V55.424H98.8785V54.8006H97.1911V52.7528Z" fill="white"/>
<path d="M102.12 53.5753C100.998 53.5753 100.101 54.4195 100.101 55.9911C100.101 57.5626 100.964 58.3982 102.086 58.3982C103.208 58.3982 104.11 57.528 104.11 55.9564C104.11 54.3849 103.251 53.5753 102.12 53.5753ZM102.103 57.8224C101.3 57.8224 100.77 57.1903 100.77 55.9738C100.77 54.7572 101.305 54.1511 102.103 54.1511C102.901 54.1511 103.45 54.7572 103.45 55.9738C103.45 57.1903 102.906 57.8224 102.103 57.8224Z" fill="white"/>
<path d="M107.747 56.3764C107.747 57.3895 107.251 57.8224 106.608 57.8224C105.87 57.8224 105.516 57.3765 105.516 56.3764V53.6663H104.86V56.489C104.86 57.8181 105.503 58.3939 106.479 58.3939C107.053 58.3939 107.484 58.1255 107.747 57.7358V58.303H108.412V53.6706H107.747V56.3807V56.3764Z" fill="white"/>
<path d="M111.45 53.5754C110.872 53.5754 110.44 53.8481 110.177 54.2378V53.6706H109.517V58.303H110.177V55.5928C110.177 54.5798 110.678 54.1468 111.321 54.1468C112.059 54.1468 112.408 54.5928 112.408 55.5928V58.303H113.068V55.4759C113.068 54.1468 112.425 53.571 111.45 53.571V53.5754Z" fill="white"/>
<path d="M117.035 54.1944C116.707 53.8221 116.314 53.571 115.731 53.571C114.765 53.571 113.992 54.4152 113.992 56.0603C113.992 57.7055 114.722 58.3939 115.645 58.3939C116.271 58.3939 116.707 58.0865 117.03 57.7358V58.3029H117.691V52.0601H117.03V54.1944H117.035ZM117.035 57.1513C116.707 57.554 116.305 57.8181 115.813 57.8181C115.084 57.8181 114.644 57.2119 114.644 56.0474C114.644 54.8005 115.019 54.1425 115.787 54.1425C116.331 54.1425 116.776 54.4498 117.035 54.8395V57.147V57.1513Z" fill="white"/>
<path d="M120.487 53.5753C119.891 53.5753 119.348 53.7268 118.942 53.9476L119.184 54.4888C119.564 54.268 119.961 54.1338 120.444 54.1338C121.117 54.1338 121.441 54.4715 121.441 55.1555V55.7053C121.169 55.5538 120.755 55.4369 120.289 55.4369C119.378 55.4369 118.523 55.8785 118.523 56.9219C118.523 58.0388 119.283 58.3982 120.004 58.3982C120.664 58.3982 121.117 58.0908 121.441 57.7401V58.3073H122.101V55.0819C122.101 53.9996 121.48 53.5796 120.483 53.5796L120.487 53.5753ZM121.441 57.1643C121.16 57.5453 120.716 57.857 120.112 57.857C119.555 57.857 119.179 57.5583 119.179 56.8699C119.179 56.2855 119.581 55.9651 120.258 55.9651C120.819 55.9651 121.147 56.0603 121.441 56.2292V57.1643Z" fill="white"/>
<path d="M124.207 52.0601H123.542V53.6662H122.973V54.2247H123.542V57.3462C123.542 58.1124 123.853 58.3895 124.427 58.3895C124.772 58.3895 125.018 58.3376 125.273 58.2337L125.32 57.6622C125.109 57.7488 124.936 57.7921 124.669 57.7921C124.319 57.7921 124.207 57.6492 124.207 57.2379V54.2247H125.351V53.6662H124.207V52.0601Z" fill="white"/>
<path d="M126.848 51.8999C126.576 51.8999 126.36 52.112 126.36 52.3805C126.36 52.6489 126.576 52.848 126.848 52.848C127.094 52.848 127.301 52.6316 127.301 52.3805C127.301 52.112 127.09 51.8999 126.848 51.8999Z" fill="white"/>
<path d="M127.163 53.6663H126.503V58.2986H127.163V53.6663Z" fill="white"/>
<path d="M130.176 53.5753C129.054 53.5753 128.156 54.4195 128.156 55.9911C128.156 57.5626 129.015 58.3982 130.141 58.3982C131.268 58.3982 132.161 57.528 132.161 55.9564C132.161 54.3849 131.298 53.5753 130.176 53.5753ZM130.159 57.8224C129.36 57.8224 128.821 57.1903 128.821 55.9738C128.821 54.7572 129.36 54.1511 130.159 54.1511C130.957 54.1511 131.505 54.7572 131.505 55.9738C131.505 57.1903 130.961 57.8224 130.159 57.8224Z" fill="white"/>
<path d="M135.048 53.5754C134.47 53.5754 134.038 53.8481 133.771 54.2378V53.6706H133.11V58.303H133.771V55.5928C133.771 54.5798 134.271 54.1468 134.914 54.1468C135.652 54.1468 136.006 54.5928 136.006 55.5928V58.303H136.662V55.4759C136.662 54.1468 136.019 53.571 135.048 53.571V53.5754Z" fill="white"/>
<path d="M75.7261 30.7902C73.0763 30.7945 70.8926 32.8726 70.8926 35.4788C70.8926 38.0851 73.0763 40.1415 75.7261 40.1501C78.4017 40.1415 80.5639 38.0591 80.5639 35.4788C80.5639 32.8985 78.4017 30.7945 75.7261 30.7902ZM75.6613 38.0115C74.276 38.0115 73.2316 36.8772 73.2316 35.4788C73.2316 34.0804 74.3494 32.9245 75.7304 32.9245C77.1114 32.9245 78.1903 34.0588 78.1903 35.4788C78.1903 36.8988 77.0596 38.0115 75.6656 38.0115H75.6613Z" fill="white"/>
<path d="M53.5479 27.5648C54.2859 28.2964 55.1317 28.9372 55.9647 29.3485L56.051 29.3961L57.4794 27.7033L57.3413 27.6254C55.9862 26.8894 54.9246 25.9586 54.2298 24.7854C53.5393 23.6294 53.1854 22.2873 53.1854 20.6812V19.1746H50.6306V20.521C50.6306 22.2614 50.2378 23.6294 49.4999 24.8286C48.6756 26.1577 47.4543 27.2271 45.892 28.2185L45.7539 28.3051L47.3032 29.9156L47.3895 29.868C48.3131 29.3658 49.2927 28.5908 50.1429 27.725C50.8809 26.9673 51.5196 26.1577 51.908 25.3915C52.2834 26.1448 52.8574 26.911 53.5479 27.5691V27.5648Z" fill="white"/>
<path d="M50.7812 39.0418H61.4753V31.7123H50.7812V39.0418ZM53.185 33.7817H59.0716V36.9724H53.185V33.7817Z" fill="white"/>
<path d="M86.4375 39.0418H98.5299V31.7123H86.4375V39.0418ZM88.8154 33.7817H96.1563V36.9724H88.8154V33.7817Z" fill="white"/>
<path d="M61.5185 18.7417H59.1406V30.8724H61.5185V25.5041H64.3021V23.3481H61.5185V18.7417Z" fill="white"/>
<path d="M110.82 28.1839C111.601 28.8636 112.495 29.4351 113.336 29.8031L113.423 29.8421L114.709 28.0974L114.571 28.0281C113.345 27.4003 112.253 26.6211 111.468 25.6686C110.669 24.6988 110.195 23.5299 110.195 22.1229V21.7116H113.733V19.6249H104.127V21.7116H107.661V22.2138C107.661 23.4953 107.238 24.6902 106.535 25.7249C105.711 26.9674 104.507 27.9675 103.337 28.6169L103.182 28.6991L104.761 30.3399L104.847 30.2966C105.698 29.8118 106.638 29.0801 107.441 28.2575C108.084 27.5822 108.662 26.8678 109.016 26.1535C109.444 26.8462 110.1 27.5389 110.825 28.1839H110.82Z" fill="white"/>
<path d="M128.019 33.8293H136.663V39.0375H139.062V31.7599H128.019V33.8293Z" fill="white"/>
<path d="M133.983 25.4867C133.983 24.3395 133.469 23.2831 132.709 22.4779H135.083V20.4128H130.552V18.1399H127.975V20.4128H123.336V22.4779H125.761C125.019 23.2831 124.505 24.3308 124.505 25.4867C124.505 28.0454 126.607 30.1234 129.235 30.1321C131.864 30.1234 133.978 28.0454 133.983 25.4867ZM126.797 25.3915C126.797 23.9758 127.988 22.7766 129.235 22.7766C130.483 22.7766 131.669 23.9801 131.674 25.3915C131.674 26.7855 130.483 27.9891 129.235 27.9934C127.984 27.9891 126.801 26.7855 126.797 25.3915Z" fill="white"/>
<path d="M139.062 18.7417H136.688V30.9157H139.062V26.2704H141.854V24.1144H139.062V18.7417Z" fill="white"/>
<path d="M118.92 18.7417H116.547V30.9157H118.92V25.5041H121.708V23.3481H118.92V18.7417Z" fill="white"/>
<path d="M78.6299 22.3523H74.8926V24.4867H78.6299V31.301H81.0078V18.7417H78.6299V22.3523Z" fill="white"/>
<path d="M72.5923 27.8808C73.3346 28.6081 74.202 29.2489 75.0306 29.6818L75.1213 29.7338L76.5497 28.041L76.4116 27.9631C75.0565 27.2487 74.0165 26.3223 73.3173 25.1663C72.6096 24.0191 72.2557 22.625 72.2557 21.0188V19.1746H69.6965V20.863C69.6965 22.6034 69.3081 23.9671 68.5874 25.1447C67.7675 26.4954 66.5203 27.5734 64.958 28.5562L64.8242 28.6428L66.3822 30.2576L66.4598 30.2057C67.3791 29.6991 68.3371 28.9675 69.1873 28.1319C69.9555 27.3656 70.5942 26.5301 70.9826 25.7291C71.3494 26.4608 71.9105 27.2054 72.5923 27.8851V27.8808Z" fill="white"/>
<path d="M113.824 30.7902C111.174 30.7945 108.991 32.8726 108.986 35.4788C108.991 38.0591 111.17 40.1415 113.824 40.1501C116.496 40.1415 118.662 38.0591 118.662 35.4788C118.662 32.8985 116.496 30.7945 113.824 30.7902ZM113.755 38.0115C112.374 38.0115 111.321 36.8772 111.321 35.4788C111.321 34.0804 112.435 32.9245 113.824 32.9245C115.214 32.9245 116.28 34.0588 116.284 35.4788C116.284 36.8728 115.149 38.0115 113.755 38.0115Z" fill="white"/>
<path d="M89.3334 25.6989H91.7113V19.5037H85.2939V21.5644H89.3334V25.6989Z" fill="white"/>
<path d="M96.4706 25.6989H98.8529V19.5037H92.4355V21.5644H96.4706V25.6989Z" fill="white"/>
<path d="M157.083 24.2269H155.085V19.0794H152.837V38.518H155.085V26.5648H157.083V39.0375H159.414V18.7417H157.083V24.2269Z" fill="white"/>
<path d="M149.54 26.9154C149.005 25.7422 148.785 24.4304 148.785 22.8199V22.0536H151.482V19.8673H143.645V22.0536H146.429V22.8632C146.429 24.3871 146.23 25.634 145.751 26.7899C145.194 28.119 144.258 29.3139 142.765 30.5954L142.661 30.6906L144.137 32.1582L144.228 32.089C144.97 31.5391 145.747 30.7426 146.394 29.92C146.942 29.2273 147.404 28.5086 147.693 27.8765C147.991 28.4913 148.457 29.197 149.001 29.855C149.631 30.6257 150.343 31.3573 151.025 31.7946L151.115 31.8552L152.358 30.3659L152.259 30.275C150.921 29.1061 150.093 28.0627 149.549 26.9111L149.54 26.9154Z" fill="white"/>
<path d="M83.3037 28.5822H91.197V30.894H93.7734V28.5822H101.792V26.5084H83.3037V28.5822Z" fill="white"/>
<path d="M172.953 27.9198H164.917V21.7852H171.036V19.6249H162.509V30.0152H172.953V27.9198Z" fill="white"/>
<path d="M168.408 32.5695H166.004V39.0375H177.246V36.9074H168.408V32.5695Z" fill="white"/>
<path d="M177.19 24.3611V18.7373H174.816V33.7124H177.19V26.5171H179.999V24.3611H177.19Z" fill="white"/>
<path d="M50.4109 12.4771L44.2525 9.91846L50.4109 7.35984L49.3147 4.71463L43.1606 7.27325L45.7112 1.09532L43.07 0L40.5238 6.17794L37.9733 0L35.3321 1.09532L37.8826 7.27325L31.7286 4.71463L30.6367 7.35984L36.7908 9.91846L30.6367 12.4771L31.7286 15.1223L37.8826 12.5637L35.3321 18.7416L37.9733 19.8369L40.5238 13.6633L43.07 19.8369L45.7112 18.7373L43.1606 12.5637L49.3147 15.1223L50.4109 12.4771Z" fill="#009FE3"/>
<path d="M10.5649 29.7121H14.6604V18.7416H0.65625V22.4388H10.5649V29.7121Z" fill="#009FE3"/>
<path d="M26.5415 29.7121H30.637V18.7416H16.6328V22.4388H26.5415V29.7121Z" fill="#009FE3"/>
<path d="M0 35.3878H26.541V41.0375H30.6366V31.6906H0V35.3878Z" fill="#009FE3"/>
<path d="M9.9082 58.3029H30.6361V42.9381H9.9082V58.3029ZM14.0037 46.6353H26.5449V54.6056H14.0037V46.6353Z" fill="#009FE3"/>
</g>
<defs>
<clipPath id="clip0_19_338">
<rect width="180" height="60" fill="white"/>
</clipPath>
</defs>
</svg>
