<svg width="60" height="60" viewBox="0 0 60 60" fill="none" xmlns="http://www.w3.org/2000/svg">
<g clip-path="url(#clip0_59_324)">
<path d="M7.48994 59.4101C6.78994 59.4101 6.18994 58.8201 6.18994 58.1301V33.4201C6.18994 32.7301 6.78994 32.1401 7.48994 32.1401C8.18994 32.1401 8.78994 32.7301 8.78994 33.4201V58.1301C8.78994 58.8201 8.18994 59.4101 7.48994 59.4101Z" fill="white"/>
<path d="M7.49 38.4499C3.4 38.4499 0 35.0899 0 31.0399C0 26.9899 3.39 23.6299 7.49 23.6299C11.59 23.6299 14.98 26.9899 14.98 31.0399C14.98 35.0899 11.59 38.4499 7.49 38.4499ZM7.49 26.0999C4.69 26.0999 2.5 28.2699 2.5 31.0399C2.5 33.8099 4.7 35.9799 7.49 35.9799C10.28 35.9799 12.48 33.8099 12.48 31.0399C12.48 28.2699 10.28 26.0999 7.49 26.0999Z" fill="white"/>
<path d="M52.4099 59.4101C51.7099 59.4101 51.1099 58.8201 51.1099 58.1301V33.4201C51.1099 32.7301 51.7099 32.1401 52.4099 32.1401C53.1099 32.1401 53.7099 32.7301 53.7099 33.4201V58.1301C53.7099 58.8201 53.1099 59.4101 52.4099 59.4101Z" fill="white"/>
<path d="M52.4099 38.4499C48.3199 38.4499 44.9199 35.0899 44.9199 31.0399C44.9199 26.9899 48.3099 23.6299 52.4099 23.6299C56.5099 23.6299 59.8999 26.9899 59.8999 31.0399C59.8999 35.0899 56.5099 38.4499 52.4099 38.4499ZM52.4099 26.0999C49.6099 26.0999 47.4199 28.2699 47.4199 31.0399C47.4199 33.8099 49.6199 35.9799 52.4099 35.9799C55.1999 35.9799 57.3999 33.8099 57.3999 31.0399C57.3999 28.2699 55.1999 26.0999 52.4099 26.0999Z" fill="white"/>
<path d="M41.2302 59.4098C40.5302 59.4098 39.9302 58.8198 39.9302 58.1298V45.8698C39.9302 45.1798 40.5302 44.5898 41.2302 44.5898C41.9302 44.5898 42.5302 45.1798 42.5302 45.8698V58.2298C42.4302 58.8198 41.8302 59.4198 41.2302 59.4198V59.4098Z" fill="white"/>
<path d="M41.2302 49.5201C38.4302 49.5201 36.2402 47.3501 36.2402 44.5801C36.2402 41.8101 38.4402 39.6401 41.2302 39.6401C44.0202 39.6401 46.2202 41.8101 46.2202 44.5801C46.2202 47.3501 43.9202 49.5201 41.2302 49.5201ZM41.2302 42.1101C39.8302 42.1101 38.7302 43.2001 38.7302 44.5801C38.7302 45.9601 39.8302 47.0501 41.2302 47.0501C42.6302 47.0501 43.7302 45.9601 43.7302 44.5801C43.7302 43.2001 42.5302 42.1101 41.2302 42.1101Z" fill="white"/>
<path d="M19.9699 59.4098C19.2699 59.4098 18.6699 58.8198 18.6699 58.1298V45.8698C18.6699 45.1798 19.2699 44.5898 19.9699 44.5898C20.6699 44.5898 21.2699 45.1798 21.2699 45.8698V58.2298C21.2699 58.8198 20.6699 59.4198 19.9699 59.4198V59.4098Z" fill="white"/>
<path d="M19.97 49.5201C17.17 49.5201 14.98 47.3501 14.98 44.5801C14.98 41.8101 17.18 39.6401 19.97 39.6401C22.76 39.6401 24.96 41.8101 24.96 44.5801C24.96 47.3501 22.76 49.5201 19.97 49.5201ZM19.97 42.1101C18.57 42.1101 17.47 43.2001 17.47 44.5801C17.47 45.9601 18.57 47.0501 19.97 47.0501C21.37 47.0501 22.47 45.9601 22.47 44.5801C22.47 43.2001 21.37 42.1101 19.97 42.1101Z" fill="white"/>
<path d="M31.2502 59.4099C30.5502 59.4099 29.9502 58.8199 29.9502 58.1299V13.6399C29.9502 12.9499 30.5502 12.3599 31.2502 12.3599C31.9502 12.3599 32.5502 12.9499 32.5502 13.6399V58.1199C32.4502 58.8099 31.8502 59.3999 31.2502 59.3999V59.4099Z" fill="white"/>
<path d="M31.2502 22.34C25.0602 22.34 19.9702 17.4 19.9702 11.17C19.9702 4.94 24.9602 0 31.2502 0C37.5402 0 42.4302 5.04 42.4302 11.27C42.4302 17.5 37.4402 22.34 31.2502 22.34ZM31.2502 2.57C26.4602 2.57 22.4602 6.43 22.4602 11.27C22.4602 16.11 26.3502 19.97 31.2502 19.97C36.1502 19.97 40.0402 16.12 40.0402 11.27C40.0402 6.42 36.0502 2.57 31.2502 2.57Z" fill="white"/>
</g>
<defs>
<clipPath id="clip0_59_324">
<rect width="60" height="59.41" fill="white"/>
</clipPath>
</defs>
</svg>
