<svg width="60" height="60" viewBox="0 0 60 60" fill="none" xmlns="http://www.w3.org/2000/svg">
<g clip-path="url(#clip0_59_427)">
<path d="M16.2702 59.4099C15.5702 59.4099 14.9702 58.8199 14.9702 58.1299V14.9299C14.9702 14.2399 15.5702 13.6499 16.2702 13.6499C16.9702 13.6499 17.5702 14.2399 17.5702 14.9299V58.2299C17.4702 58.8199 16.8702 59.4199 16.2702 59.4199V59.4099Z" fill="white"/>
<path d="M16.27 32.23C7.29 32.23 0 25.01 0 16.11C0 7.21 7.29 0 16.27 0C25.25 0 32.44 7.31 32.44 16.21C32.44 25.11 25.15 32.22 16.27 32.22V32.23ZM16.27 2.57C8.68 2.57 2.49 8.7 2.49 16.21C2.49 23.72 8.68 29.85 16.27 29.85C23.86 29.85 30.05 23.72 30.05 16.21C30.05 8.7 23.76 2.57 16.27 2.57Z" fill="white"/>
<path d="M16.1699 23.6299C15.8699 23.6299 15.5699 23.5299 15.3699 23.3299L7.87992 17.0999C7.37992 16.6999 7.27992 15.9099 7.67992 15.3199C8.07992 14.8299 8.87992 14.7299 9.47992 15.1199L16.9699 21.3499C17.4699 21.7499 17.5699 22.5399 17.1699 23.1299C16.9699 23.4299 16.5699 23.6199 16.1699 23.6199V23.6299Z" fill="white"/>
<path d="M58.7002 44.58H31.2502C30.5502 44.58 29.9502 43.99 29.9502 43.3C29.9502 42.61 30.5502 42.02 31.2502 42.02H58.7002C59.4002 42.02 60.0002 42.61 60.0002 43.3C60.0002 43.99 59.3002 44.58 58.7002 44.58Z" fill="white"/>
<path d="M36.2399 59.41C35.5399 59.41 34.9399 58.82 34.9399 58.13V43.3C34.9399 42.61 35.5399 42.02 36.2399 42.02C36.9399 42.02 37.5399 42.61 37.5399 43.3V58.13C37.4399 58.82 36.8399 59.41 36.2399 59.41Z" fill="white"/>
<path d="M53.7102 59.41C53.0102 59.41 52.4102 58.82 52.4102 58.13V43.3C52.4102 42.61 53.0102 42.02 53.7102 42.02C54.4102 42.02 55.0102 42.61 55.0102 43.3V58.13C54.9102 58.82 54.3102 59.41 53.7102 59.41Z" fill="white"/>
</g>
<defs>
<clipPath id="clip0_59_427">
<rect width="60" height="59.41" fill="white"/>
</clipPath>
</defs>
</svg>
