<svg width="60" height="60" viewBox="0 0 60 60" fill="none" xmlns="http://www.w3.org/2000/svg">
<g clip-path="url(#clip0_26_1559)">
<path d="M8.79 32.23C4 32.23 0 28.37 0 23.53V8.7C0 3.95 3.89 0 8.79 0C11.09 0 13.28 0.89 14.98 2.57C16.68 4.25 17.58 6.43 17.58 8.7V23.53C17.48 28.37 13.59 32.23 8.79 32.23ZM8.79 2.57C5.4 2.57 2.5 5.34 2.5 8.8V23.63C2.5 26.99 5.29 29.86 8.79 29.86C12.29 29.86 15.08 27.09 15.08 23.63V8.8C15.08 7.12 14.38 5.64 13.28 4.45C11.98 3.26 10.38 2.57 8.79 2.57Z" fill="#6D9954"/>
<path d="M8.79023 59.4099C8.09023 59.4099 7.49023 58.8199 7.49023 58.1299V14.9299C7.49023 14.2399 8.09023 13.6499 8.79023 13.6499C9.49023 13.6499 10.0902 14.2399 10.0902 14.9299V58.2299C9.99023 58.8199 9.39023 59.4199 8.79023 59.4199V59.4099Z" fill="#6D9954"/>
<path d="M8.78994 21.1501C8.38994 21.1501 7.98994 20.9501 7.78994 20.5601C7.38994 19.9701 7.58994 19.1801 8.08994 18.8801L11.8799 16.4101C12.4799 16.0101 13.2799 16.2101 13.5799 16.7101C13.9799 17.3001 13.7799 18.0901 13.2799 18.3901L9.48994 20.8601C9.18994 21.0601 8.98994 21.1601 8.78994 21.1601V21.1501Z" fill="#6D9954"/>
<path d="M8.69016 27.2801C8.49016 27.2801 8.19016 27.1801 7.99016 27.0801L4.20016 24.6101C3.60016 24.2201 3.50016 23.4201 3.90016 22.9301C4.30016 22.4401 5.10016 22.2401 5.60016 22.6301L9.39016 25.1001C9.99016 25.5001 10.0902 26.2901 9.69016 26.7801C9.49016 27.0801 9.19016 27.2701 8.69016 27.2701V27.2801Z" fill="#6D9954"/>
<path d="M29.9499 32.23C25.1599 32.23 21.1699 28.37 21.1699 23.53V8.7C21.1699 3.96 25.0599 0 29.9499 0C32.2499 0 34.4399 0.89 36.1399 2.57C37.8399 4.25 38.7399 6.43 38.7399 8.7V23.53C38.7399 28.37 34.7499 32.23 29.9499 32.23ZM29.9499 2.57C26.5599 2.57 23.6599 5.34 23.6599 8.8V23.63C23.6599 26.99 26.4599 29.86 29.9499 29.86C33.4399 29.86 36.2399 27.09 36.2399 23.63V8.8C36.2399 7.12 35.5399 5.64 34.4399 4.45C33.1399 3.26 31.6499 2.57 29.9499 2.57Z" fill="#6D9954"/>
<path d="M29.9499 59.4099C29.2499 59.4099 28.6499 58.8199 28.6499 58.1299V14.9299C28.6499 14.2399 29.2499 13.6499 29.9499 13.6499C30.6499 13.6499 31.2499 14.2399 31.2499 14.9299V58.2299C31.2499 58.8199 30.6499 59.4199 29.9499 59.4199V59.4099Z" fill="#6D9954"/>
<path d="M29.9501 21.1501C29.5501 21.1501 29.1501 20.9501 28.9501 20.5601C28.5501 19.9701 28.7501 19.1801 29.2501 18.8801L33.0401 16.4101C33.6401 16.0101 34.4401 16.2101 34.7401 16.7101C35.1401 17.3001 34.9401 18.0901 34.4401 18.3901L30.6501 20.8601C30.4501 21.0601 30.1501 21.1601 29.9501 21.1601V21.1501Z" fill="#6D9954"/>
<path d="M29.9499 27.2798C29.7499 27.2798 29.4499 27.1798 29.2499 27.0798L25.4599 24.6098C24.8599 24.2198 24.7599 23.4198 25.1599 22.9298C25.5599 22.3398 26.3599 22.2398 26.8599 22.6298L30.6499 25.0998C31.2499 25.4998 31.3499 26.2898 30.9499 26.7798C30.7499 27.0798 30.3499 27.2698 29.9499 27.2698V27.2798Z" fill="#6D9954"/>
<path d="M51.2102 32.23C46.4202 32.23 42.4302 28.37 42.4302 23.53V8.7C42.4302 3.96 46.3202 0 51.2102 0C53.5102 0 55.7002 0.89 57.4002 2.57C59.1002 4.25 60.0002 6.43 60.0002 8.7V23.53C59.9002 28.37 56.0102 32.23 51.2102 32.23ZM51.2102 2.57C47.8202 2.57 44.9202 5.34 44.9202 8.8V23.63C44.9202 26.99 47.7202 29.86 51.2102 29.86C54.7002 29.86 57.5002 27.09 57.5002 23.63V8.8C57.5002 7.12 56.8002 5.64 55.7002 4.45C54.4002 3.26 52.8002 2.57 51.2102 2.57Z" fill="#6D9954"/>
<path d="M51.2102 59.4099C50.5102 59.4099 49.9102 58.8199 49.9102 58.1299V14.9299C49.9102 14.2399 50.5102 13.6499 51.2102 13.6499C51.9102 13.6499 52.5102 14.2399 52.5102 14.9299V58.2299C52.4102 58.8199 51.8102 59.4199 51.2102 59.4199V59.4099Z" fill="#6D9954"/>
<path d="M51.2099 21.1501C50.8099 21.1501 50.4099 20.9501 50.2099 20.5601C49.8099 19.9701 50.0099 19.1801 50.5099 18.8801L54.2999 16.4101C54.8999 16.0101 55.6999 16.2101 55.9999 16.7101C56.3999 17.3001 56.1999 18.0901 55.6999 18.3901L51.9099 20.8601C51.6099 21.0601 51.4099 21.1601 51.2099 21.1601V21.1501Z" fill="#6D9954"/>
<path d="M51.1101 27.2798C50.9101 27.2798 50.6101 27.1798 50.4101 27.0798L46.6201 24.6098C46.0201 24.2198 45.9201 23.4198 46.3201 22.9298C46.7201 22.3398 47.5201 22.2398 48.0201 22.6298L51.8101 25.0998C52.4101 25.4998 52.5101 26.2898 52.1101 26.7798C51.9101 27.0798 51.6101 27.2698 51.1101 27.2698V27.2798Z" fill="#6D9954"/>
</g>
<defs>
<clipPath id="clip0_26_1559">
<rect width="60" height="59.41" fill="white"/>
</clipPath>
</defs>
</svg>
