<svg width="60" height="60" viewBox="0 0 60 60" fill="none" xmlns="http://www.w3.org/2000/svg">
<g clip-path="url(#clip0_59_358)">
<path d="M26.0599 53.47C25.5599 53.47 25.1599 53.17 24.9599 52.78L20.1699 42.5C19.8699 41.91 20.1699 41.12 20.7699 40.82C21.3699 40.52 22.1699 40.82 22.4699 41.41L27.2599 51.69C27.5599 52.28 27.2599 53.07 26.6599 53.37C26.3599 53.47 26.1599 53.47 26.0599 53.47Z" fill="white"/>
<path d="M22.47 59.2999H1.30999C0.909993 59.2999 0.509994 59.0999 0.209994 58.7099C0.00999355 58.3099 -0.0900064 57.9199 0.109994 57.5199L8.68999 39.0399C8.98999 38.4499 9.68999 38.1499 10.39 38.4499C10.99 38.7499 11.29 39.4399 10.99 40.1299L3.19999 56.9299H22.46C23.16 56.9299 23.76 57.5199 23.76 58.2099C23.76 58.6999 23.16 59.2999 22.46 59.2999H22.47Z" fill="white"/>
<path d="M21.27 43.2899H16.18C15.88 43.2899 15.58 43.1899 15.28 42.8899L13.18 40.8099H9.78997C9.38997 40.8099 8.98997 40.6099 8.68997 40.2199C8.48997 39.8199 8.38997 39.4299 8.58997 39.0299L13.78 27.8599C13.98 27.4599 14.38 27.1699 14.88 27.1699C15.38 27.1699 15.78 27.4699 15.98 27.8599L22.27 41.4999C22.47 41.8999 22.37 42.2899 22.17 42.6899C22.07 42.9899 21.67 43.2799 21.27 43.2799V43.2899ZM16.78 40.8199H19.38L14.99 31.4299L11.8 38.3499H13.8C14.1 38.3499 14.4 38.4499 14.7 38.7499L16.8 40.8299L16.78 40.8199Z" fill="white"/>
<path d="M58.7002 59.2998H22.4702C21.9702 59.2998 21.5702 59.0998 21.3702 58.7098C21.1702 58.3098 21.1702 57.8198 21.3702 57.4298L24.9602 51.5998L32.6502 38.8498C33.0502 38.2598 33.7502 38.0598 34.3502 38.4498C34.9502 38.8498 35.1502 39.5398 34.7502 40.1298L27.0602 52.8798L24.6602 56.8298H56.4002L48.0202 43.0898C47.7202 42.8898 47.4202 42.4998 47.4202 41.9998C47.4202 41.3098 48.0202 40.7198 48.7202 40.7198H48.9202C49.3202 40.7198 49.7202 40.9198 50.0202 41.3098L59.8002 57.4198C60.0002 57.8198 60.0002 58.3098 59.8002 58.6998C59.5002 59.0998 59.1002 59.2898 58.7002 59.2898V59.2998Z" fill="white"/>
<path d="M48.7201 43.2901H42.4301C42.1301 43.2901 41.8301 43.1901 41.5301 42.8901L39.4301 40.8101H33.6401C33.2401 40.8101 32.7401 40.6101 32.5401 40.2201C32.3401 39.8201 32.3401 39.3301 32.5401 39.0301L38.9301 27.9601C39.1301 27.5601 39.5301 27.3701 40.0301 27.3701C40.4301 27.3701 40.9301 27.5701 41.1301 27.9601L49.9101 41.6001C50.1101 42.0001 50.2101 42.4901 49.9101 42.8801C49.5101 42.9801 49.1101 43.2801 48.7101 43.2801L48.7201 43.2901ZM42.9301 40.8201H46.4201L40.0301 30.8401L35.7401 38.3501H39.9301C40.2301 38.3501 40.5301 38.4501 40.8301 38.7501L42.9301 40.8301V40.8201Z" fill="white"/>
<path d="M39.9401 29.6498C39.2401 29.6498 38.6401 29.0598 38.6401 28.3698V12.3498C38.6401 11.6598 39.2401 11.0698 39.9401 11.0698C40.6401 11.0698 41.2401 11.6598 41.2401 12.3498V28.4598C41.2401 29.0498 40.6401 29.6498 39.9401 29.6498Z" fill="white"/>
<path d="M58.6999 13.64H39.9299C39.2299 13.64 38.6299 13.05 38.6299 12.36V1.28C38.6299 0.59 39.2299 0 39.9299 0H58.6999C59.3999 0 59.9999 0.59 59.9999 1.28V12.35C59.8999 13.04 59.2999 13.63 58.6999 13.63V13.64ZM41.2299 11.17H57.3999V2.47H41.2299V11.17Z" fill="white"/>
<path d="M22.4702 22.2402H16.1802C11.4902 22.2402 7.6902 18.5802 7.5002 14.0402C6.7002 12.8502 6.2002 11.3702 6.2002 9.8902C6.2002 5.8402 9.5902 2.4802 13.6902 2.4802C14.2902 2.4802 14.8902 2.5802 15.4902 2.6802C16.7902 1.6902 18.2902 1.2002 19.9802 1.2002C23.1702 1.2002 26.0702 3.28019 27.0702 6.14019C28.2702 6.83019 29.2702 7.8202 29.9602 9.0102C30.7602 10.3902 31.2602 11.8802 31.2602 13.5602C31.2602 18.4002 27.2702 22.2602 22.4802 22.2602L22.4702 22.2402ZM13.7802 4.9402C10.9802 4.9402 8.7902 7.1102 8.7902 9.8802C8.7902 10.9702 9.0902 11.9602 9.7902 12.8502C9.9902 13.0502 10.0902 13.3402 10.0902 13.6402C10.0902 17.0002 12.8902 19.8702 16.3802 19.8702H22.4702C25.8602 19.8702 28.7602 17.1002 28.7602 13.6402C28.7602 12.4502 28.4602 11.3702 27.8602 10.3802C27.2602 9.3902 26.4602 8.7002 25.4602 8.1102C25.1602 7.9102 24.9602 7.7102 24.8602 7.3202C24.2602 5.1502 22.2602 3.6602 20.0702 3.6602C18.9702 3.6602 17.9702 3.9602 17.0802 4.6502C16.9802 4.7502 16.8802 4.8502 16.7802 4.9502C16.4802 5.2502 15.9802 5.3502 15.5802 5.2502C14.8802 5.0502 14.2802 4.9502 13.7802 4.9502V4.9402Z" fill="white"/>
<path d="M18.6699 11.17C18.4699 11.17 18.2699 11.17 18.0699 11.07C17.4699 10.77 17.1699 9.97996 17.4699 9.38996C17.8699 8.59996 16.5699 6.22996 15.1699 4.54996C14.7699 4.05996 14.7699 3.25996 15.2699 2.76996C15.7699 2.27996 16.5699 2.36996 17.0699 2.86996C17.7699 3.65996 21.0599 7.70996 19.7599 10.38C19.6599 10.87 19.1599 11.17 18.6599 11.17H18.6699Z" fill="white"/>
</g>
<defs>
<clipPath id="clip0_59_358">
<rect width="60" height="59.3" fill="white"/>
</clipPath>
</defs>
</svg>
