<svg width="48" height="60" viewBox="0 0 48 60" fill="none" xmlns="http://www.w3.org/2000/svg">
<path d="M23.76 59.4102C23.06 59.4102 22.46 58.8202 22.46 58.1302V11.2702C22.46 10.5802 23.06 9.99023 23.76 9.99023C24.46 9.99023 25.06 10.5802 25.06 11.2702V58.2202C25.06 58.8102 24.46 59.4102 23.76 59.4102Z" fill="#6D9954"/>
<path d="M23.7602 12.46C20.3702 12.46 17.4702 9.69 17.4702 6.23C17.4702 2.77 20.2702 0 23.7602 0C27.2502 0 30.0502 2.77 30.0502 6.23C30.0502 9.69 27.1502 12.46 23.7602 12.46ZM23.7602 2.57C21.6602 2.57 19.9702 4.25 19.9702 6.33C19.9702 8.41 21.6702 10.09 23.7602 10.09C25.8502 10.09 27.5502 8.41 27.5502 6.33C27.5502 4.25 25.8502 2.57 23.7602 2.57Z" fill="#6D9954"/>
<path d="M41.2299 21.1499C37.8399 21.1499 34.9399 18.3799 34.9399 14.9199C34.9399 11.4599 37.7399 8.68994 41.2299 8.68994C44.7199 8.68994 47.5199 11.4599 47.5199 14.9199C47.5199 18.3799 44.6199 21.1499 41.2299 21.1499ZM41.2299 11.2699C39.1299 11.2699 37.4399 12.9499 37.4399 15.0299C37.4399 17.1099 39.1399 18.7899 41.2299 18.7899C43.3199 18.7899 45.0199 17.1099 45.0199 15.0299C45.0199 12.9499 43.3199 11.2699 41.2299 11.2699Z" fill="#6D9954"/>
<path d="M23.7599 26.1C23.2599 26.1 22.8599 25.8 22.6599 25.41C22.3599 24.82 22.5599 24.03 23.2599 23.73L35.7399 17.5C36.3399 17.2 37.1399 17.4 37.4399 18.09C37.7399 18.78 37.5399 19.47 36.8399 19.77L24.3599 26C24.1599 26 23.9599 26.1 23.7599 26.1Z" fill="#6D9954"/>
<path d="M6.29 28.5699C2.9 28.5699 0 25.7999 0 22.3399C0 18.8799 2.8 16.1099 6.29 16.1099C9.78 16.1099 12.58 18.8799 12.58 22.3399C12.58 25.7999 9.68 28.5699 6.29 28.5699ZM6.29 18.6799C4.19 18.6799 2.5 20.3599 2.5 22.4399C2.5 24.5199 4.2 26.1999 6.29 26.1999C8.38 26.1999 10.08 24.5199 10.08 22.4399C10.08 20.3599 8.38 18.6799 6.29 18.6799Z" fill="#6D9954"/>
<path d="M23.7601 33.5099C23.5601 33.5099 23.3601 33.5099 23.1601 33.4099L10.6801 27.1799C10.0801 26.8799 9.78009 26.0899 10.0801 25.4999C10.3801 24.9099 11.1801 24.6099 11.7801 24.9099L24.2601 31.0399C24.8601 31.3399 25.1601 32.1299 24.8601 32.7199C24.6601 33.2099 24.2601 33.5099 23.7601 33.5099Z" fill="#6D9954"/>
<path d="M41.2299 38.4502C37.8399 38.4502 34.9399 35.6802 34.9399 32.2202C34.9399 28.7602 37.7399 25.9902 41.2299 25.9902C44.7199 25.9902 47.5199 28.7602 47.5199 32.2202C47.5199 35.6802 44.6199 38.4502 41.2299 38.4502ZM41.2299 28.5702C39.1299 28.5702 37.4399 30.2502 37.4399 32.3302C37.4399 34.4102 39.1399 36.0902 41.2299 36.0902C43.3199 36.0902 45.0199 34.4102 45.0199 32.3302C45.0199 30.2502 43.3199 28.5702 41.2299 28.5702Z" fill="#6D9954"/>
<path d="M23.7599 43.3998C23.2599 43.3998 22.8599 43.0998 22.6599 42.7098C22.3599 42.1198 22.5599 41.3298 23.2599 41.0298L35.7399 34.7998C36.3399 34.4998 37.1399 34.6998 37.4399 35.3898C37.7399 35.9798 37.5399 36.7698 36.8399 37.0698L24.3599 43.2998C24.1599 43.2998 23.9599 43.3998 23.7599 43.3998Z" fill="#6D9954"/>
<path d="M6.29 45.8702C2.9 45.8702 0 43.1002 0 39.6402C0 36.1802 2.8 33.4102 6.29 33.4102C9.78 33.4102 12.58 36.1802 12.58 39.6402C12.58 43.1002 9.68 45.8702 6.29 45.8702ZM6.29 35.9802C4.19 35.9802 2.5 37.6602 2.5 39.7402C2.5 41.8202 4.2 43.5002 6.29 43.5002C8.38 43.5002 10.08 41.8202 10.08 39.7402C10.08 37.6602 8.38 35.9802 6.29 35.9802Z" fill="#6D9954"/>
<path d="M23.7601 50.8102C23.5601 50.8102 23.3601 50.8102 23.1601 50.7102L10.6801 44.4802C10.0801 44.1802 9.78009 43.3902 10.0801 42.8002C10.3801 42.2102 11.1801 41.9102 11.7801 42.2102L24.2601 48.4402C24.8601 48.7402 25.1601 49.5302 24.8601 50.1202C24.6601 50.5202 24.2601 50.8102 23.7601 50.8102Z" fill="#6D9954"/>
</svg>
