<svg width="60" height="60" viewBox="0 0 60 60" fill="none" xmlns="http://www.w3.org/2000/svg">
<g clip-path="url(#clip0_59_373)">
<path d="M19.9704 59.3102C19.2704 59.3102 18.6704 58.7202 18.6704 58.0302V46.9602C18.6704 46.2702 19.2704 45.6802 19.9704 45.6802C20.6704 45.6802 21.2704 46.2702 21.2704 46.9602V58.1302C21.2704 58.7202 20.6704 59.3202 19.9704 59.3202V59.3102Z" fill="white"/>
<path d="M19.9704 46.5602C19.2704 46.5602 18.6704 45.9702 18.6704 45.2802V27.1902C18.6704 26.5002 19.2704 25.9102 19.9704 25.9102C20.6704 25.9102 21.2704 26.5002 21.2704 27.1902V45.2802C21.2704 45.9702 20.6704 46.5602 19.9704 46.5602Z" fill="white"/>
<path d="M19.9701 26.79C19.2701 26.79 18.6701 26.2 18.6701 25.51V2.47H11.1801V13.15C11.1801 13.84 10.5801 14.43 9.88008 14.43C9.18008 14.43 8.58008 13.84 8.58008 13.15V1.28C8.58008 0.59 9.18008 0 9.88008 0H19.8601C20.5601 0 21.1601 0.59 21.1601 1.28V25.6C21.2601 26.19 20.6601 26.79 19.9601 26.79H19.9701Z" fill="white"/>
<path d="M9.98018 34.1998C9.28018 34.1998 8.68018 33.6098 8.68018 32.9198V14.8298C8.68018 14.1398 9.28018 13.5498 9.98018 13.5498C10.6802 13.5498 11.2802 14.1398 11.2802 14.8298V32.9198C11.2802 33.6098 10.6802 34.1998 9.98018 34.1998Z" fill="white"/>
<path d="M9.98018 59.3098C9.28018 59.3098 8.68018 58.7198 8.68018 58.0298V34.5998C8.68018 33.9098 9.28018 33.3198 9.98018 33.3198C10.6802 33.3198 11.2802 33.9098 11.2802 34.5998V58.1298C11.2802 58.7198 10.6802 59.3198 9.98018 59.3198V59.3098Z" fill="white"/>
<path d="M9.98023 16.1099H7.08023C3.19023 16.1099 -0.00976562 12.9499 -0.00976562 9.08988V7.40988C-0.00976562 6.71988 0.590234 6.12988 1.29023 6.12988H4.19023C8.08023 6.12988 11.2802 9.28988 11.2802 13.1499V14.8299C11.2802 15.5199 10.6802 16.1099 9.98023 16.1099ZM2.50023 8.69988V9.09988C2.50023 11.5699 4.60023 13.6499 7.09023 13.6499H8.79023V13.2599C8.79023 10.7899 6.69023 8.70988 4.20023 8.70988H2.50023V8.69988Z" fill="white"/>
<path d="M22.8602 28.4702H19.9602C19.2602 28.4702 18.6602 27.8802 18.6602 27.1902V25.5102C18.6602 21.6602 21.8502 18.4902 25.7502 18.4902H28.6502C29.3502 18.4902 29.9502 19.0802 29.9502 19.7702V21.4502C29.9502 25.3002 26.7602 28.4702 22.8602 28.4702ZM21.2602 26.0002H22.9602C25.4602 26.0002 27.5502 23.9202 27.5502 21.4502V21.0502H25.8502C23.3502 21.0502 21.2602 23.1302 21.2602 25.6002V25.9902V26.0002Z" fill="white"/>
<path d="M9.98023 35.8799H7.08023C3.19023 35.8799 -0.00976562 32.7199 -0.00976562 28.8599V27.1799C-0.00976562 26.4899 0.590234 25.8999 1.29023 25.8999H4.19023C8.08023 25.8999 11.2802 29.0599 11.2802 32.9199V34.5999C11.2802 35.2899 10.6802 35.8799 9.98023 35.8799ZM2.50023 28.4699V28.8699C2.50023 31.3399 4.60023 33.4199 7.09023 33.4199H8.79023V33.0299C8.79023 30.5599 6.69023 28.4799 4.20023 28.4799H2.50023V28.4699Z" fill="white"/>
<path d="M22.8602 48.2398H19.9602C19.2602 48.2398 18.6602 47.6498 18.6602 46.9598V45.2798C18.6602 41.4298 21.8502 38.2598 25.7502 38.2598H28.6502C29.3502 38.2598 29.9502 38.8498 29.9502 39.5398V41.2198C29.9502 45.0698 26.7602 48.2398 22.8602 48.2398ZM21.2602 45.7698H22.9602C25.4602 45.7698 27.5502 43.6898 27.5502 41.2198V40.8198H25.8502C23.3502 40.8198 21.2602 42.8998 21.2602 45.3698V45.7598V45.7698Z" fill="white"/>
<path d="M14.9702 19.77H9.98018C9.28018 19.77 8.68018 19.18 8.68018 18.49C8.68018 17.8 9.28018 17.21 9.98018 17.21H14.9702C15.6702 17.21 16.2702 17.8 16.2702 18.49C16.2702 19.18 15.6702 19.77 14.9702 19.77Z" fill="white"/>
<path d="M19.9702 35.8798H14.9802C14.2802 35.8798 13.6802 35.2898 13.6802 34.5998C13.6802 33.9098 14.2802 33.3198 14.9802 33.3198H19.9702C20.6702 33.3198 21.2702 33.9098 21.2702 34.5998C21.2702 35.2898 20.6702 35.8798 19.9702 35.8798Z" fill="white"/>
<path d="M14.9702 48.2402H9.98018C9.28018 48.2402 8.68018 47.6502 8.68018 46.9602C8.68018 46.2702 9.28018 45.6802 9.98018 45.6802H14.9702C15.6702 45.6802 16.2702 46.2702 16.2702 46.9602C16.2702 47.6502 15.6702 48.2402 14.9702 48.2402Z" fill="white"/>
<path d="M49.9201 59.3102C49.2201 59.3102 48.6201 58.7202 48.6201 58.0302V46.9602C48.6201 46.2702 49.2201 45.6802 49.9201 45.6802C50.6201 45.6802 51.2201 46.2702 51.2201 46.9602V58.1302C51.2201 58.7202 50.6201 59.3202 49.9201 59.3202V59.3102Z" fill="white"/>
<path d="M49.9201 46.5602C49.2201 46.5602 48.6201 45.9702 48.6201 45.2802V27.1902C48.6201 26.5002 49.2201 25.9102 49.9201 25.9102C50.6201 25.9102 51.2201 26.5002 51.2201 27.1902V45.2802C51.2201 45.9702 50.6201 46.5602 49.9201 46.5602Z" fill="white"/>
<path d="M49.9203 26.79C49.2203 26.79 48.6203 26.2 48.6203 25.51V2.47H41.1303V13.15C41.1303 13.84 40.5303 14.43 39.8303 14.43C39.1303 14.43 38.5303 13.84 38.5303 13.15V1.28C38.5303 0.59 39.1303 0 39.8303 0H49.8103C50.5103 0 51.1103 0.59 51.1103 1.28V25.6C51.2103 26.19 50.6103 26.79 49.9103 26.79H49.9203Z" fill="white"/>
<path d="M39.9304 34.1998C39.2304 34.1998 38.6304 33.6098 38.6304 32.9198V14.8298C38.6304 14.1398 39.2304 13.5498 39.9304 13.5498C40.6304 13.5498 41.2304 14.1398 41.2304 14.8298V32.9198C41.2304 33.6098 40.6304 34.1998 39.9304 34.1998Z" fill="white"/>
<path d="M39.9304 59.3098C39.2304 59.3098 38.6304 58.7198 38.6304 58.0298V34.5998C38.6304 33.9098 39.2304 33.3198 39.9304 33.3198C40.6304 33.3198 41.2304 33.9098 41.2304 34.5998V58.1298C41.2304 58.7198 40.6304 59.3198 39.9304 59.3198V59.3098Z" fill="white"/>
<path d="M39.9304 16.1099H37.0304C33.1404 16.1099 29.9404 12.9499 29.9404 9.08988V7.40988C29.9404 6.71988 30.5404 6.12988 31.2404 6.12988H34.1404C38.0304 6.12988 41.2304 9.28988 41.2304 13.1499V14.8299C41.2304 15.5199 40.6304 16.1099 39.9304 16.1099ZM32.4504 8.69988V9.09988C32.4504 11.5699 34.5504 13.6499 37.0404 13.6499H38.7404V13.2599C38.7404 10.7899 36.6404 8.70988 34.1504 8.70988H32.4504V8.69988Z" fill="white"/>
<path d="M52.8104 28.4702H49.9104C49.2104 28.4702 48.6104 27.8802 48.6104 27.1902V25.5102C48.6104 21.6602 51.8004 18.4902 55.7004 18.4902H58.6003C59.3003 18.4902 59.9004 19.0802 59.9004 19.7702V21.4502C59.9004 25.3002 56.7104 28.4702 52.8104 28.4702ZM51.2104 26.0002H52.9104C55.4104 26.0002 57.5004 23.9202 57.5004 21.4502V21.0502H55.8004C53.3004 21.0502 51.2104 23.1302 51.2104 25.6002V25.9902V26.0002Z" fill="white"/>
<path d="M39.9304 35.8799H37.0304C33.1404 35.8799 29.9404 32.7199 29.9404 28.8599V27.1799C29.9404 26.4899 30.5404 25.8999 31.2404 25.8999H34.1404C38.0304 25.8999 41.2304 29.0599 41.2304 32.9199V34.5999C41.2304 35.2899 40.6304 35.8799 39.9304 35.8799ZM32.4504 28.4699V28.8699C32.4504 31.3399 34.5504 33.4199 37.0404 33.4199H38.7404V33.0299C38.7404 30.5599 36.6404 28.4799 34.1504 28.4799H32.4504V28.4699Z" fill="white"/>
<path d="M52.8104 48.2398H49.9104C49.2104 48.2398 48.6104 47.6498 48.6104 46.9598V45.2798C48.6104 41.4298 51.8004 38.2598 55.7004 38.2598H58.6003C59.3003 38.2598 59.9004 38.8498 59.9004 39.5398V41.2198C59.9004 45.0698 56.7104 48.2398 52.8104 48.2398ZM51.2104 45.7698H52.9104C55.4104 45.7698 57.5004 43.6898 57.5004 41.2198V40.8198H55.8004C53.3004 40.8198 51.2104 42.8998 51.2104 45.3698V45.7598V45.7698Z" fill="white"/>
<path d="M44.9301 19.77H39.9401C39.2401 19.77 38.6401 19.18 38.6401 18.49C38.6401 17.8 39.2401 17.21 39.9401 17.21H44.9301C45.6301 17.21 46.2301 17.8 46.2301 18.49C46.2301 19.18 45.6301 19.77 44.9301 19.77Z" fill="white"/>
<path d="M49.9204 35.8798H44.9304C44.2304 35.8798 43.6304 35.2898 43.6304 34.5998C43.6304 33.9098 44.2304 33.3198 44.9304 33.3198H49.9204C50.6204 33.3198 51.2204 33.9098 51.2204 34.5998C51.2204 35.2898 50.6204 35.8798 49.9204 35.8798Z" fill="white"/>
<path d="M44.9301 48.2402H39.9401C39.2401 48.2402 38.6401 47.6502 38.6401 46.9602C38.6401 46.2702 39.2401 45.6802 39.9401 45.6802H44.9301C45.6301 45.6802 46.2301 46.2702 46.2301 46.9602C46.2301 47.6502 45.6301 48.2402 44.9301 48.2402Z" fill="white"/>
<path d="M50.2202 59.31H9.60018C9.11018 59.31 8.68018 58.72 8.68018 58.03C8.68018 57.34 9.10018 56.75 9.60018 56.75H50.2202C50.7102 56.75 51.1402 57.34 51.1402 58.03C51.0702 58.72 50.6502 59.31 50.2202 59.31Z" fill="white"/>
</g>
<defs>
<clipPath id="clip0_59_373">
<rect width="59.9" height="59.31" fill="white"/>
</clipPath>
</defs>
</svg>
