<svg width="12" height="7" viewBox="0 0 12 7" fill="none" xmlns="http://www.w3.org/2000/svg">
<path d="M6.0005 2.45376L1.9275 6.52701C1.789 6.66535 1.61492 6.73618 1.40525 6.73951C1.19575 6.74268 1.0185 6.67185 0.8735 6.52701C0.728667 6.38201 0.65625 6.20635 0.65625 6.00001C0.65625 5.79368 0.728667 5.61801 0.8735 5.47301L5.36775 0.978764C5.54858 0.798098 5.7595 0.707764 6.0005 0.707764C6.2415 0.707764 6.45242 0.798098 6.63325 0.978764L11.1275 5.47301C11.2658 5.61151 11.3367 5.7856 11.34 5.99526C11.3432 6.20476 11.2723 6.38201 11.1275 6.52701C10.9825 6.67185 10.8068 6.74426 10.6005 6.74426C10.3942 6.74426 10.2185 6.67185 10.0735 6.52701L6.0005 2.45376Z" fill="white"/>
</svg>
